<?xml version="1.0" encoding="utf-8"?>
<!-- Generator: Adobe Illustrator 22.0.1, SVG Export Plug-In . SVG Version: 6.00 Build 0)  -->
<svg version="1.1" id="Capa_1" xmlns="http://www.w3.org/2000/svg" xmlns:xlink="http://www.w3.org/1999/xlink" x="0px" y="0px"
	 viewBox="0 0 400 200" enable-background="new 0 0 400 200" xml:space="preserve">
<g>
	<path fill="none" d="M147,144.1c-0.1,0.6-0.2,1.1-0.4,1.6l-0.8,2.5h2.4l-0.7-2.4C147.3,145.2,147.1,144.6,147,144.1z"/>
	<path fill="none" d="M131.4,144.4c-0.4-0.3-0.8-0.4-1.2-0.4c-0.7,0-1.3,0.3-1.7,0.9c-0.5,0.6-0.7,1.5-0.7,2.7
		c0,1.1,0.2,1.9,0.7,2.5c0.5,0.6,1,0.9,1.7,0.9c0.7,0,1.3-0.3,1.7-0.9c0.5-0.6,0.7-1.5,0.7-2.6c0-0.7-0.1-1.4-0.4-2
		C132,145.1,131.8,144.7,131.4,144.4z"/>
	<path fill="none" d="M116.3,144.1c-0.1,0.6-0.2,1.1-0.4,1.6l-0.8,2.5h2.4l-0.7-2.4C116.6,145.2,116.4,144.6,116.3,144.1z"/>
	<path fill="none" d="M165.3,144.4c-0.4-0.3-0.8-0.4-1.2-0.4c-0.7,0-1.3,0.3-1.7,0.9s-0.7,1.5-0.7,2.7c0,1.1,0.2,1.9,0.7,2.5
		c0.5,0.6,1,0.9,1.7,0.9c0.7,0,1.3-0.3,1.7-0.9c0.5-0.6,0.7-1.5,0.7-2.6c0-0.7-0.1-1.4-0.4-2C165.9,145.1,165.7,144.7,165.3,144.4z"
		/>
	<path fill="none" d="M307.3,144.1c-0.1,0.6-0.2,1.1-0.4,1.6l-0.8,2.5h2.4l-0.7-2.4C307.5,145.2,307.4,144.6,307.3,144.1z"/>
	<path fill="none" d="M212.1,144.1c-0.1,0.6-0.2,1.1-0.4,1.6l-0.8,2.5h2.4l-0.7-2.4C212.3,145.2,212.2,144.6,212.1,144.1z"/>
	<path fill="none" d="M250.4,144.1c-0.1,0.6-0.2,1.1-0.4,1.6l-0.8,2.5h2.4l-0.7-2.4C250.6,145.2,250.5,144.6,250.4,144.1z"/>
	<path fill="none" d="M50.8,105.7h-23c0.2,1.6,0.4,3.1,0.6,4.7h22.4V105.7z"/>
	<path fill="none" d="M225.7,144.1c-0.1,0.6-0.2,1.1-0.4,1.6l-0.8,2.5h2.4l-0.7-2.4C226,145.2,225.8,144.6,225.7,144.1z"/>
	<path fill="none" d="M235.7,144.4c-0.2-0.1-0.6-0.2-1.2-0.2H233v6.6h1.5c0.6,0,1.1-0.1,1.4-0.3c0.3-0.2,0.6-0.5,0.7-1
		c0.2-0.6,0.3-1.3,0.3-2.1c0-0.9-0.1-1.6-0.4-2.1C236.3,144.9,236,144.6,235.7,144.4z"/>
	<rect x="77.6" y="92" fill="none" width="24.1" height="4.8"/>
	<rect x="77.6" y="98.6" fill="none" width="24.1" height="5.2"/>
	<path fill="none" d="M50.8,98.6H27.5c0,0.5,0,0.9,0,1.4c0,1.3,0.1,2.6,0.1,3.9h23.2V98.6z"/>
	<path fill="none" d="M73.6,151.7c13.7,0,26.1-6.8,34.5-17.5h-69C47.5,144.9,59.8,151.7,73.6,151.7z"/>
	<rect x="52.6" y="98.6" fill="none" width="23.2" height="5.2"/>
	<path fill="none" d="M104.2,110.4h4.4l4.7-9.4h6.4c0-0.3,0-0.7,0-1c0-28.5-20.7-51.7-46.1-51.7c-22.2,0-40.9,17.7-45.2,41.3h75.8
		V110.4z"/>
	<rect x="77.6" y="105.7" fill="none" width="24.1" height="4.7"/>
	<rect x="52.6" y="92" fill="none" width="23.2" height="4.8"/>
	<rect x="52.6" y="105.7" fill="none" width="23.2" height="4.7"/>
	<path fill="none" d="M50.8,92H28c-0.2,1.6-0.4,3.2-0.5,4.8h23.2V92z"/>
	<path fill="none" d="M352.5,144.1c-0.1,0.6-0.2,1.1-0.4,1.6l-0.8,2.5h2.4l-0.7-2.4C352.8,145.2,352.6,144.6,352.5,144.1z"/>
	<path fill="none" d="M371.7,128.8c-0.8,0-1.4,0.3-2,1c-0.5,0.6-0.7,1.4-0.7,2.3c0,1,0.3,1.8,0.9,2.4c0.5,0.6,1.1,0.9,1.9,0.9
		c0.8,0,1.4-0.3,2-1c0.5-0.6,0.7-1.4,0.7-2.3c0-1-0.3-1.8-0.9-2.4C373.1,129.1,372.5,128.8,371.7,128.8z M372.6,134.3l-0.3-0.7
		c-0.2-0.5-0.4-0.8-0.6-1c-0.1-0.1-0.3-0.2-0.5-0.2h-0.3v1.8h-0.6V130h1.2c0.4,0,0.7,0,0.9,0.1c0.2,0.1,0.3,0.2,0.4,0.4
		c0.1,0.2,0.2,0.4,0.2,0.6c0,0.3-0.1,0.6-0.3,0.8c-0.2,0.2-0.4,0.3-0.7,0.4c0.1,0.1,0.2,0.1,0.3,0.2c0.1,0.2,0.3,0.5,0.5,0.8
		l0.4,0.8H372.6z"/>
	<path fill="none" d="M331,146.3c0.1-0.2,0.2-0.5,0.2-0.8c0-0.4-0.1-0.8-0.4-1c-0.3-0.2-0.6-0.4-1.1-0.4h-2.2v2.8h2
		c0.4,0,0.8-0.1,1-0.2C330.7,146.7,330.9,146.6,331,146.3z"/>
	<path fill="none" d="M372.4,131.3c0-0.1,0-0.3-0.1-0.4c-0.1-0.1-0.1-0.2-0.2-0.2c-0.1,0-0.3-0.1-0.5-0.1h-0.6v1.3h0.7
		c0.3,0,0.5-0.1,0.7-0.2C372.4,131.6,372.4,131.5,372.4,131.3z"/>
	<path fill="none" d="M338,144.4c-0.4-0.3-0.8-0.4-1.2-0.4c-0.7,0-1.3,0.3-1.7,0.9c-0.5,0.6-0.7,1.5-0.7,2.7c0,1.1,0.2,1.9,0.7,2.5
		c0.5,0.6,1,0.9,1.7,0.9c0.7,0,1.3-0.3,1.7-0.9c0.5-0.6,0.7-1.5,0.7-2.6c0-0.7-0.1-1.4-0.4-2C338.6,145.1,338.4,144.7,338,144.4z"/>
	<path fill="#4972B0" d="M108.1,134.2c-8.5,10.7-20.8,17.5-34.5,17.5c-13.7,0-26.1-6.8-34.5-17.5h-1.6c0,0-10.1-11.4-10.3-23.8h1.2
		c-0.3-1.5-0.5-3.1-0.6-4.7h-1.5v-1.8h1.4c-0.1-1.3-0.1-2.6-0.1-3.9c0-0.5,0-0.9,0-1.4h-1.3v-1.8h1.3c0.1-1.6,0.2-3.2,0.5-4.8h-1.1
		v-2.5h1.5c4.3-23.5,22.9-41.3,45.2-41.3c25.4,0,46.1,23.2,46.1,51.7c0,0.3,0,0.7,0,1h2.5c0-0.3,0-0.7,0-1
		c0-29.8-21.8-54.1-48.6-54.1C46.8,45.9,25,70.2,25,100c0,29.8,21.8,54.1,48.6,54.1c15.1,0,28.7-7.8,37.6-19.9H108.1z"/>
	<path fill="#4972B0" d="M125.4,134.2l19.8-33.2h-23.1c-0.2,12.6-4.3,24.1-11,33.2H125.4z"/>
	<path fill="#4972B0" d="M113.2,101l-4.7,9.4h-4.4v1.3h-2.5v-1.3H77.6v3.7h-1.8v-3.7H52.6v3.7h-1.8v-3.7H28.4
		c1.7,9,5.4,17.2,10.7,23.8h69c7-8.9,11.4-20.5,11.6-33.2H113.2z"/>
	<path fill="#4972B0" d="M27.1,110.4c0.2,12.4,10.3,23.8,10.3,23.8h1.6c-5.3-6.6-9-14.8-10.7-23.8H27.1z"/>
	<path fill="#4972B0" d="M108.1,134.2h3.1c6.7-9.1,10.7-20.6,11-33.2h-2.5C119.4,113.7,115.1,125.3,108.1,134.2z"/>
	<path fill="#4972B0" d="M50.8,90.8h1.8V92h23.2v-1.2h1.8V92h24.1v4.8h1.2v1.8h-1.2v5.2h1.2v1.8h-1.2v4.7h2.5V89.6H28.4
		c-0.1,0.8-0.3,1.6-0.4,2.5h22.8V90.8z"/>
	<path fill="#4972B0" d="M26.9,89.6V92H28c0.1-0.8,0.2-1.6,0.4-2.5H26.9z"/>
	<rect x="101.7" y="110.4" fill="#4972B0" width="2.5" height="1.3"/>
	<rect x="50.8" y="98.6" fill="#4972B0" width="1.8" height="5.2"/>
	<rect x="50.8" y="92" fill="#4972B0" width="1.8" height="4.8"/>
	<rect x="50.8" y="105.7" fill="#4972B0" width="1.8" height="4.7"/>
	<rect x="50.8" y="110.4" fill="#4972B0" width="1.8" height="3.7"/>
	<rect x="50.8" y="90.8" fill="#4972B0" width="1.8" height="1.2"/>
	<rect x="75.8" y="92" fill="#4972B0" width="1.8" height="4.8"/>
	<rect x="75.8" y="98.6" fill="#4972B0" width="1.8" height="5.2"/>
	<rect x="75.8" y="105.7" fill="#4972B0" width="1.8" height="4.7"/>
	<rect x="75.8" y="110.4" fill="#4972B0" width="1.8" height="3.7"/>
	<rect x="75.8" y="90.8" fill="#4972B0" width="1.8" height="1.2"/>
	<path fill="#4972B0" d="M50.8,96.8H27.5c0,0.6-0.1,1.2-0.1,1.8h23.3V96.8z"/>
	<rect x="52.6" y="96.8" fill="#4972B0" width="23.2" height="1.8"/>
	<rect x="77.6" y="96.8" fill="#4972B0" width="24.1" height="1.8"/>
	<path fill="#4972B0" d="M26.2,96.8v1.8h1.3c0-0.6,0-1.2,0.1-1.8H26.2z"/>
	<rect x="101.7" y="96.8" fill="#4972B0" width="1.2" height="1.8"/>
	<rect x="50.8" y="96.8" fill="#4972B0" width="1.8" height="1.8"/>
	<rect x="75.8" y="96.8" fill="#4972B0" width="1.8" height="1.8"/>
	<rect x="52.6" y="103.9" fill="#4972B0" width="23.2" height="1.8"/>
	<path fill="#4972B0" d="M50.8,103.9H27.6c0,0.6,0.1,1.2,0.1,1.8h23V103.9z"/>
	<rect x="77.6" y="103.9" fill="#4972B0" width="24.1" height="1.8"/>
	<path fill="#4972B0" d="M26.2,103.9v1.8h1.5c-0.1-0.6-0.1-1.2-0.1-1.8H26.2z"/>
	<rect x="101.7" y="103.9" fill="#4972B0" width="1.2" height="1.8"/>
	<rect x="50.8" y="103.9" fill="#4972B0" width="1.8" height="1.8"/>
	<rect x="75.8" y="103.9" fill="#4972B0" width="1.8" height="1.8"/>
	<polygon fill="#4972B0" points="224,109.1 203.7,109.1 202.3,112.1 202.3,109.1 182,109.1 178.2,117.3 223.4,117.3 	"/>
	<polygon fill="#4972B0" points="181.6,135.6 184.4,129.6 172.5,129.6 169.7,135.6 	"/>
	<polygon fill="#4972B0" points="202.9,135.6 206.5,129.6 189,129.6 189,135.6 	"/>
	<polygon fill="#4972B0" points="189,127.5 207.7,127.5 212.1,120.2 211.9,127.5 222.7,127.5 223.3,119.3 177.3,119.3 173.5,127.5 
		185.4,127.5 188.9,120 	"/>
	<polygon fill="#4972B0" points="211.8,129.6 211.6,135.6 222.1,135.6 222.6,129.6 	"/>
	<polygon fill="#4972B0" points="202.3,101.8 185.4,101.8 183,107 202.3,107 	"/>
	<polygon fill="#4972B0" points="224.5,101.8 206.8,102.1 204.6,107 224.1,107 	"/>
	<polygon fill="#4972B0" points="266.8,135.6 269.7,129.6 258,129.6 255,135.6 	"/>
	<polygon fill="#4972B0" points="274.2,135.6 289.7,135.6 292.7,129.6 274.2,129.6 	"/>
	<polygon fill="#4972B0" points="306.5,101.8 295,101.8 292.1,107 303.9,107 	"/>
	<polygon fill="#4972B0" points="274.2,120 274.2,127.5 293.7,127.5 297.8,119.3 263.3,119.3 259.1,127.5 270.6,127.5 	"/>
	<polygon fill="#4972B0" points="289.3,101.8 272.3,101.8 269.6,107 289.3,107 	"/>
	<polygon fill="#4972B0" points="302.9,109.1 291,109.1 289.3,112.1 289.3,109.1 268.6,109.1 264.4,117.3 298.8,117.3 	"/>
	<polygon fill="#4972B0" points="137.6,135.6 149.9,135.6 152.9,129.6 140.7,129.6 	"/>
	<polygon fill="#4972B0" points="170.9,101.8 155.3,101.8 152.6,107 170.6,107 	"/>
	<polygon fill="#4972B0" points="153.9,127.5 155.3,124.8 158.4,124.8 158.3,127.5 169.3,127.5 169.8,119.3 146.1,119.3 
		141.8,127.5 	"/>
	<polygon fill="#4972B0" points="159.1,114.1 161.2,114.1 161.2,117.3 170,117.3 170.5,109.1 151.5,109.1 147.2,117.3 157.5,117.3 	
		"/>
	<polygon fill="#4972B0" points="169.2,129.6 158.3,129.6 158.1,135.6 168.8,135.6 	"/>
	<polygon fill="#4972B0" points="240.6,124.8 243.7,124.8 243.6,127.5 254.6,127.5 255.1,119.3 231.4,119.3 227.1,127.5 
		239.2,127.5 	"/>
	<polygon fill="#4972B0" points="244.3,114.1 246.5,114.1 246.5,117.3 255.3,117.3 255.8,109.1 236.7,109.1 232.5,117.3 
		242.8,117.3 	"/>
	<polygon fill="#4972B0" points="256.2,101.8 240.6,101.8 237.8,107 255.9,107 	"/>
	<polygon fill="#4972B0" points="222.9,135.6 235.2,135.6 238.2,129.6 226,129.6 	"/>
	<polygon fill="#4972B0" points="243.6,129.6 243.4,135.6 254.1,135.6 254.5,129.6 	"/>
	<polygon fill="#4972B0" points="325.2,109.1 306.2,109.1 301.9,117.3 312.3,117.3 313.8,114.1 315.9,114.1 315.9,117.3 
		324.7,117.3 	"/>
	<polygon fill="#4972B0" points="307.6,129.6 295.4,129.6 292.3,135.6 304.7,135.6 	"/>
	<polygon fill="#4972B0" points="312.8,135.6 323.6,135.6 323.9,129.6 313,129.6 	"/>
	<polygon fill="#4972B0" points="325.6,101.8 310,101.8 307.3,107 325.3,107 	"/>
	<polygon fill="#4972B0" points="324.6,119.3 300.8,119.3 296.5,127.5 308.7,127.5 310,124.8 313.2,124.8 313.1,127.5 324.1,127.5 	
		"/>
	<polygon fill="#4972B0" points="348,112.2 363.9,111.9 365.2,109.1 339.1,109.1 334.7,117.3 345.4,117.3 	"/>
	<polygon fill="#4972B0" points="340.2,107 366.2,107 368.5,102.1 342.8,102.1 	"/>
	<polygon fill="#4972B0" points="328.1,129.6 324.8,135.6 358.7,135.6 361.2,129.6 	"/>
	<polygon fill="#4972B0" points="363.9,123.3 342.4,123.1 344.3,119.3 333.6,119.3 329.2,127.5 362.1,127.5 	"/>
	<path fill="#4972B0" d="M115.9,143.2l-2.7,8.6h1l0.8-2.6h3l0.8,2.6h1.1l-2.9-8.6H115.9z M115.2,148.3l0.8-2.5
		c0.2-0.5,0.3-1.1,0.4-1.6c0.1,0.5,0.3,1.1,0.5,1.8l0.7,2.4H115.2z"/>
	<path fill="#4972B0" d="M124.5,147.2c-0.3-0.1-0.8-0.3-1.5-0.5c-0.7-0.2-1.2-0.4-1.4-0.6c-0.2-0.2-0.3-0.5-0.3-0.8
		c0-0.4,0.1-0.7,0.4-0.9c0.3-0.2,0.7-0.4,1.2-0.4c0.5,0,0.9,0.1,1.2,0.4c0.3,0.3,0.5,0.7,0.5,1.2l0.9-0.1c0-0.5-0.1-1-0.3-1.4
		c-0.2-0.4-0.5-0.7-0.9-0.9c-0.4-0.2-0.9-0.3-1.4-0.3c-0.8,0-1.4,0.2-1.8,0.7c-0.4,0.4-0.7,1-0.7,1.7c0,0.4,0.1,0.7,0.2,1
		c0.2,0.3,0.4,0.6,0.7,0.8c0.3,0.2,0.8,0.4,1.4,0.6c0.7,0.2,1.2,0.4,1.5,0.5c0.2,0.1,0.4,0.3,0.5,0.5c0.1,0.2,0.2,0.4,0.2,0.7
		c0,0.4-0.2,0.8-0.5,1.1c-0.3,0.3-0.7,0.4-1.3,0.4c-0.4,0-0.7-0.1-1-0.2s-0.5-0.4-0.7-0.6c-0.2-0.3-0.3-0.6-0.3-1.1l-0.9,0.1
		c0,0.9,0.3,1.6,0.8,2.1s1.2,0.8,2.1,0.8c0.6,0,1-0.1,1.4-0.3c0.4-0.2,0.7-0.5,0.9-0.9c0.2-0.4,0.3-0.9,0.3-1.3
		c0-0.5-0.1-0.9-0.3-1.3C125.2,147.7,124.9,147.4,124.5,147.2z"/>
	<path fill="#4972B0" d="M131.9,143.6c-0.5-0.4-1.1-0.5-1.7-0.5c-1,0-1.8,0.4-2.4,1.2c-0.6,0.8-1,1.9-1,3.4c0,1.2,0.3,2.2,0.9,3
		c0.6,0.9,1.5,1.4,2.5,1.4c1,0,1.9-0.4,2.5-1.3c0.6-0.8,0.9-1.8,0.9-3.1c0-0.9-0.1-1.7-0.4-2.4C132.8,144.4,132.4,143.9,131.9,143.6
		z M131.9,150.1c-0.5,0.6-1,0.9-1.7,0.9c-0.7,0-1.2-0.3-1.7-0.9c-0.5-0.6-0.7-1.4-0.7-2.5c0-1.2,0.2-2.1,0.7-2.7
		c0.5-0.6,1-0.9,1.7-0.9c0.4,0,0.8,0.1,1.2,0.4c0.4,0.3,0.6,0.6,0.8,1.1c0.2,0.6,0.4,1.2,0.4,2C132.6,148.6,132.3,149.5,131.9,150.1
		z"/>
	<path fill="#4972B0" d="M139,150.4c-0.4,0.4-0.8,0.5-1.3,0.5c-0.7,0-1.2-0.3-1.7-0.9c-0.4-0.6-0.6-1.5-0.6-2.6
		c0-0.8,0.1-1.4,0.3-1.9c0.2-0.5,0.5-0.9,0.8-1.1c0.3-0.2,0.8-0.4,1.2-0.4c0.9,0,1.6,0.6,1.9,1.8l0.9-0.3c-0.2-0.8-0.5-1.4-1-1.9
		c-0.5-0.4-1.1-0.6-1.8-0.6c-0.6,0-1.2,0.2-1.7,0.5c-0.5,0.3-0.9,0.8-1.2,1.5c-0.3,0.7-0.4,1.5-0.4,2.4c0,1,0.1,1.8,0.4,2.5
		c0.3,0.7,0.7,1.2,1.1,1.5c0.5,0.3,1,0.5,1.7,0.5c0.7,0,1.4-0.2,1.9-0.7s0.9-1.2,1.1-2.2l-0.9-0.3
		C139.6,149.5,139.3,150.1,139,150.4z"/>
	<rect x="142" y="143.2" fill="#4972B0" width="0.9" height="8.6"/>
	<path fill="#4972B0" d="M146.5,143.2l-2.7,8.6h1l0.8-2.6h3l0.8,2.6h1.1l-2.9-8.6H146.5z M145.8,148.3l0.8-2.5
		c0.2-0.5,0.3-1.1,0.4-1.6c0.1,0.5,0.3,1.1,0.5,1.8l0.7,2.4H145.8z"/>
	<path fill="#4972B0" d="M155.4,150.4c-0.4,0.4-0.8,0.5-1.3,0.5c-0.7,0-1.2-0.3-1.7-0.9c-0.4-0.6-0.6-1.5-0.6-2.6
		c0-0.8,0.1-1.4,0.3-1.9c0.2-0.5,0.5-0.9,0.8-1.1c0.3-0.2,0.8-0.4,1.2-0.4c0.9,0,1.6,0.6,1.9,1.8l0.9-0.3c-0.2-0.8-0.5-1.4-1-1.9
		c-0.5-0.4-1.1-0.6-1.8-0.6c-0.6,0-1.2,0.2-1.7,0.5c-0.5,0.3-0.9,0.8-1.2,1.5c-0.3,0.7-0.4,1.5-0.4,2.4c0,1,0.1,1.8,0.4,2.5
		c0.3,0.7,0.7,1.2,1.1,1.5c0.5,0.3,1,0.5,1.7,0.5c0.7,0,1.4-0.2,1.9-0.7s0.9-1.2,1.1-2.2l-0.9-0.3
		C156,149.5,155.8,150.1,155.4,150.4z"/>
	<rect x="158.4" y="143.2" fill="#4972B0" width="0.9" height="8.6"/>
	<path fill="#4972B0" d="M165.8,143.6c-0.5-0.4-1.1-0.5-1.7-0.5c-1,0-1.8,0.4-2.4,1.2c-0.6,0.8-1,1.9-1,3.4c0,1.2,0.3,2.2,0.9,3
		c0.6,0.9,1.5,1.4,2.5,1.4c1,0,1.9-0.4,2.5-1.3c0.6-0.8,0.9-1.8,0.9-3.1c0-0.9-0.1-1.7-0.4-2.4C166.7,144.4,166.3,143.9,165.8,143.6
		z M165.8,150.1c-0.5,0.6-1,0.9-1.7,0.9c-0.7,0-1.2-0.3-1.7-0.9c-0.5-0.6-0.7-1.4-0.7-2.5c0-1.2,0.2-2.1,0.7-2.7s1-0.9,1.7-0.9
		c0.4,0,0.8,0.1,1.2,0.4c0.4,0.3,0.6,0.6,0.8,1.1c0.2,0.6,0.4,1.2,0.4,2C166.5,148.6,166.3,149.5,165.8,150.1z"/>
	<polygon fill="#4972B0" points="164,142.6 165,141 163.9,141 163.3,142.6 	"/>
	<polygon fill="#4972B0" points="173.3,150 169.6,143.2 168.6,143.2 168.6,151.8 169.5,151.8 169.5,145 173.2,151.8 174.2,151.8 
		174.2,143.2 173.3,143.2 	"/>
	<path fill="#4972B0" d="M182.2,149.2c-0.2,0.6-0.3,1.1-0.4,1.4l-0.3-1.3l-1.7-6.1h-1.4v8.6h0.9v-7.3l2,7.3h0.8l2.1-7.2v7.2h0.9
		v-8.6h-1.3L182.2,149.2z"/>
	<polygon fill="#4972B0" points="187.6,147.9 191.5,147.9 191.5,146.8 187.6,146.8 187.6,144.2 191.8,144.2 191.8,143.2 
		186.7,143.2 186.7,151.8 192,151.8 192,150.8 187.6,150.8 	"/>
	<path fill="#4972B0" d="M198.8,143.2h-1l-1.4,2.3c-0.2,0.3-0.4,0.7-0.6,1c-0.1-0.3-0.3-0.6-0.6-1.1l-1.3-2.2h-1.1l2.4,4.1l-2.7,4.5
		h1.1l1.8-3c0.1-0.1,0.2-0.3,0.3-0.6c0.1,0.2,0.2,0.4,0.3,0.6l1.8,3.1h1.1l-2.7-4.6L198.8,143.2z"/>
	<rect x="200" y="143.2" fill="#4972B0" width="0.9" height="8.6"/>
	<path fill="#4972B0" d="M206.8,150.4c-0.4,0.4-0.8,0.5-1.3,0.5c-0.7,0-1.2-0.3-1.7-0.9c-0.4-0.6-0.6-1.5-0.6-2.6
		c0-0.8,0.1-1.4,0.3-1.9c0.2-0.5,0.5-0.9,0.8-1.1c0.3-0.2,0.8-0.4,1.2-0.4c0.9,0,1.6,0.6,1.9,1.8l0.9-0.3c-0.2-0.8-0.5-1.4-1-1.9
		c-0.5-0.4-1.1-0.6-1.8-0.6c-0.6,0-1.2,0.2-1.7,0.5c-0.5,0.3-0.9,0.8-1.2,1.5s-0.4,1.5-0.4,2.4c0,1,0.1,1.8,0.4,2.5
		c0.3,0.7,0.7,1.2,1.1,1.5c0.5,0.3,1,0.5,1.7,0.5c0.7,0,1.4-0.2,1.9-0.7s0.9-1.2,1.1-2.2l-0.9-0.3
		C207.4,149.5,207.2,150.1,206.8,150.4z"/>
	<path fill="#4972B0" d="M211.6,143.2l-2.7,8.6h1l0.8-2.6h3l0.8,2.6h1.1l-2.9-8.6H211.6z M210.9,148.3l0.8-2.5
		c0.2-0.5,0.3-1.1,0.4-1.6c0.1,0.5,0.3,1.1,0.5,1.8l0.7,2.4H210.9z"/>
	<polygon fill="#4972B0" points="220.8,150 217.1,143.2 216.2,143.2 216.2,151.8 217.1,151.8 217.1,145 220.8,151.8 221.7,151.8 
		221.7,143.2 220.8,143.2 	"/>
	<path fill="#4972B0" d="M225.3,143.2l-2.7,8.6h1l0.8-2.6h3l0.8,2.6h1.1l-2.9-8.6H225.3z M224.6,148.3l0.8-2.5
		c0.2-0.5,0.3-1.1,0.4-1.6c0.1,0.5,0.3,1.1,0.5,1.8l0.7,2.4H224.6z"/>
	<path fill="#4972B0" d="M236.9,144.1c-0.3-0.4-0.7-0.6-1.1-0.8c-0.3-0.1-0.8-0.2-1.4-0.2h-2.4v8.6h2.5c0.7,0,1.3-0.1,1.8-0.4
		c0.4-0.3,0.8-0.8,1.1-1.4c0.3-0.7,0.4-1.5,0.4-2.5c0-0.8-0.1-1.4-0.3-2C237.5,144.9,237.2,144.5,236.9,144.1z M236.6,149.5
		c-0.2,0.4-0.4,0.8-0.7,1c-0.3,0.2-0.8,0.3-1.4,0.3H233v-6.6h1.5c0.5,0,0.9,0.1,1.2,0.2c0.4,0.2,0.7,0.5,0.9,1
		c0.2,0.5,0.4,1.2,0.4,2.1C236.9,148.3,236.8,149,236.6,149.5z"/>
	<polygon fill="#4972B0" points="240.1,147.9 244,147.9 244,146.8 240.1,146.8 240.1,144.2 244.3,144.2 244.3,143.2 239.2,143.2 
		239.2,151.8 244.5,151.8 244.5,150.8 240.1,150.8 	"/>
	<path fill="#4972B0" d="M249.9,143.2l-2.7,8.6h1l0.8-2.6h3l0.8,2.6h1.1l-2.9-8.6H249.9z M249.2,148.3l0.8-2.5
		c0.2-0.5,0.3-1.1,0.4-1.6c0.1,0.5,0.3,1.1,0.5,1.8l0.7,2.4H249.2z"/>
	<path fill="#4972B0" d="M257.8,148.4h2.1v1.6c-0.2,0.2-0.5,0.5-0.9,0.6c-0.4,0.2-0.8,0.3-1.1,0.3c-0.8,0-1.4-0.3-1.9-0.9
		c-0.5-0.6-0.7-1.4-0.7-2.6c0-0.8,0.1-1.4,0.3-1.9c0.2-0.5,0.5-0.9,0.9-1.2c0.4-0.2,0.8-0.4,1.3-0.4c0.4,0,0.7,0.1,0.9,0.2
		c0.3,0.1,0.5,0.3,0.7,0.6c0.2,0.2,0.3,0.6,0.4,1.1l0.8-0.3c-0.1-0.6-0.3-1.1-0.6-1.4c-0.2-0.4-0.6-0.6-1-0.8
		c-0.4-0.2-0.8-0.3-1.4-0.3c-0.7,0-1.3,0.2-1.8,0.5c-0.5,0.3-0.9,0.8-1.2,1.5c-0.3,0.7-0.5,1.5-0.5,2.5c0,0.9,0.2,1.7,0.5,2.4
		c0.3,0.7,0.7,1.2,1.3,1.5c0.5,0.3,1.2,0.5,1.8,0.5c0.5,0,1-0.1,1.5-0.3c0.5-0.2,1-0.6,1.4-1v-3.2l-3,0V148.4z"/>
	<polygon fill="#4972B0" points="263.1,147.9 267,147.9 267,146.8 263.1,146.8 263.1,144.2 267.3,144.2 267.3,143.2 262.2,143.2 
		262.2,151.8 267.5,151.8 267.5,150.8 263.1,150.8 	"/>
	<polygon fill="#4972B0" points="273.4,150 269.7,143.2 268.7,143.2 268.7,151.8 269.6,151.8 269.6,145 273.3,151.8 274.3,151.8 
		274.3,143.2 273.4,143.2 	"/>
	<polygon fill="#4972B0" points="275.3,144.2 277.7,144.2 277.7,151.8 278.6,151.8 278.6,144.2 280.9,144.2 280.9,143.2 
		275.3,143.2 	"/>
	<polygon fill="#4972B0" points="282.8,147.9 286.7,147.9 286.7,146.8 282.8,146.8 282.8,144.2 287,144.2 287,143.2 281.9,143.2 
		281.9,151.8 287.1,151.8 287.1,150.8 282.8,150.8 	"/>
	<path fill="#4972B0" d="M292.4,147.2c-0.3-0.1-0.8-0.3-1.5-0.5c-0.7-0.2-1.2-0.4-1.4-0.6c-0.2-0.2-0.3-0.5-0.3-0.8
		c0-0.4,0.1-0.7,0.4-0.9c0.3-0.2,0.7-0.4,1.2-0.4c0.5,0,0.9,0.1,1.2,0.4c0.3,0.3,0.5,0.7,0.5,1.2l0.9-0.1c0-0.5-0.1-1-0.3-1.4
		c-0.2-0.4-0.5-0.7-0.9-0.9c-0.4-0.2-0.9-0.3-1.4-0.3c-0.8,0-1.4,0.2-1.8,0.7c-0.4,0.4-0.7,1-0.7,1.7c0,0.4,0.1,0.7,0.2,1
		c0.2,0.3,0.4,0.6,0.7,0.8c0.3,0.2,0.8,0.4,1.4,0.6c0.7,0.2,1.2,0.4,1.5,0.5c0.2,0.1,0.4,0.3,0.5,0.5s0.2,0.4,0.2,0.7
		c0,0.4-0.2,0.8-0.5,1.1c-0.3,0.3-0.7,0.4-1.3,0.4c-0.4,0-0.7-0.1-1-0.2c-0.3-0.2-0.5-0.4-0.7-0.6c-0.2-0.3-0.3-0.6-0.3-1.1
		l-0.9,0.1c0,0.9,0.3,1.6,0.8,2.1c0.5,0.5,1.2,0.8,2.1,0.8c0.6,0,1-0.1,1.4-0.3c0.4-0.2,0.7-0.5,0.9-0.9c0.2-0.4,0.3-0.9,0.3-1.3
		c0-0.5-0.1-0.9-0.3-1.3C293.2,147.7,292.9,147.4,292.4,147.2z"/>
	<polygon fill="#4972B0" points="302.4,150 298.7,143.2 297.7,143.2 297.7,151.8 298.6,151.8 298.6,145 302.3,151.8 303.3,151.8 
		303.3,143.2 302.4,143.2 	"/>
	<path fill="#4972B0" d="M306.8,143.2l-2.7,8.6h1l0.8-2.6h3l0.8,2.6h1.1l-2.9-8.6H306.8z M306.1,148.3l0.8-2.5
		c0.2-0.5,0.3-1.1,0.4-1.6c0.1,0.5,0.3,1.1,0.5,1.8l0.7,2.4H306.1z"/>
	<path fill="#4972B0" d="M313.6,149.5c-0.1,0.5-0.3,0.9-0.4,1.4c-0.1-0.5-0.2-0.9-0.4-1.4l-1.8-6.2h-1l2.7,8.6h1l2.8-8.6h-1
		L313.6,149.5z"/>
	<rect x="317.4" y="143.2" fill="#4972B0" width="0.9" height="8.6"/>
	<polygon fill="#4972B0" points="320.9,147.9 324.8,147.9 324.8,146.8 320.9,146.8 320.9,144.2 325.1,144.2 325.1,143.2 320,143.2 
		320,151.8 325.3,151.8 325.3,150.8 320.9,150.8 	"/>
	<path fill="#4972B0" d="M330.8,148.4c-0.1-0.2-0.3-0.3-0.6-0.5c0.6-0.1,1.1-0.4,1.5-0.8c0.3-0.4,0.5-0.9,0.5-1.6
		c0-0.5-0.1-0.9-0.3-1.3c-0.2-0.4-0.5-0.6-0.8-0.8c-0.3-0.2-0.8-0.2-1.4-0.2h-3.1v8.6h0.9V148h1.1c0.3,0,0.6,0,0.7,0.1
		c0.2,0.1,0.4,0.2,0.5,0.5c0.2,0.2,0.5,0.7,0.8,1.4l0.9,1.8h1.2l-1.2-2.3C331.3,149.1,331.1,148.7,330.8,148.4z M329.5,147h-2v-2.8
		h2.2c0.5,0,0.9,0.1,1.1,0.4c0.3,0.2,0.4,0.6,0.4,1c0,0.3-0.1,0.6-0.2,0.8c-0.1,0.2-0.3,0.4-0.5,0.5
		C330.3,146.9,329.9,147,329.5,147z"/>
	<path fill="#4972B0" d="M338.5,143.6c-0.5-0.4-1.1-0.5-1.7-0.5c-1,0-1.8,0.4-2.4,1.2c-0.6,0.8-1,1.9-1,3.4c0,1.2,0.3,2.2,0.9,3
		c0.6,0.9,1.5,1.4,2.5,1.4c1,0,1.9-0.4,2.5-1.3c0.6-0.8,0.9-1.8,0.9-3.1c0-0.9-0.1-1.7-0.4-2.4C339.4,144.4,339,143.9,338.5,143.6z
		 M338.5,150.1c-0.5,0.6-1,0.9-1.7,0.9c-0.7,0-1.2-0.3-1.7-0.9c-0.5-0.6-0.7-1.4-0.7-2.5c0-1.2,0.2-2.1,0.7-2.7
		c0.5-0.6,1-0.9,1.7-0.9c0.4,0,0.8,0.1,1.2,0.4c0.4,0.3,0.6,0.6,0.8,1.1c0.2,0.6,0.4,1.2,0.4,2C339.2,148.6,338.9,149.5,338.5,150.1
		z"/>
	<path fill="#4972B0" d="M345.3,147.2c-0.3-0.1-0.8-0.3-1.5-0.5c-0.7-0.2-1.2-0.4-1.4-0.6c-0.2-0.2-0.3-0.5-0.3-0.8
		c0-0.4,0.1-0.7,0.4-0.9c0.3-0.2,0.7-0.4,1.2-0.4c0.5,0,0.9,0.1,1.2,0.4c0.3,0.3,0.5,0.7,0.5,1.2l0.9-0.1c0-0.5-0.1-1-0.3-1.4
		c-0.2-0.4-0.5-0.7-0.9-0.9c-0.4-0.2-0.9-0.3-1.4-0.3c-0.8,0-1.4,0.2-1.8,0.7c-0.4,0.4-0.7,1-0.7,1.7c0,0.4,0.1,0.7,0.2,1
		c0.2,0.3,0.4,0.6,0.7,0.8c0.3,0.2,0.8,0.4,1.4,0.6c0.7,0.2,1.2,0.4,1.5,0.5c0.2,0.1,0.4,0.3,0.5,0.5s0.2,0.4,0.2,0.7
		c0,0.4-0.2,0.8-0.5,1.1c-0.3,0.3-0.7,0.4-1.3,0.4c-0.4,0-0.7-0.1-1-0.2s-0.5-0.4-0.7-0.6c-0.2-0.3-0.3-0.6-0.3-1.1L341,149
		c0,0.9,0.3,1.6,0.8,2.1s1.2,0.8,2.1,0.8c0.6,0,1-0.1,1.4-0.3c0.4-0.2,0.7-0.5,0.9-0.9c0.2-0.4,0.3-0.9,0.3-1.3
		c0-0.5-0.1-0.9-0.3-1.3C346.1,147.7,345.7,147.4,345.3,147.2z"/>
	<path fill="#4972B0" d="M352,143.2l-2.7,8.6h1l0.8-2.6h3l0.8,2.6h1.1l-2.9-8.6H352z M351.3,148.3l0.8-2.5c0.2-0.5,0.3-1.1,0.4-1.6
		c0.1,0.5,0.3,1.1,0.5,1.8l0.7,2.4H351.3z"/>
	<rect x="356.8" y="150.6" fill="#4972B0" width="1" height="1.2"/>
	<path fill="#4972B0" d="M363.7,150.4c-0.4,0.4-0.8,0.5-1.3,0.5c-0.7,0-1.2-0.3-1.7-0.9c-0.4-0.6-0.6-1.5-0.6-2.6
		c0-0.8,0.1-1.4,0.3-1.9c0.2-0.5,0.5-0.9,0.8-1.1c0.3-0.2,0.8-0.4,1.2-0.4c0.9,0,1.6,0.6,1.9,1.8l0.9-0.3c-0.2-0.8-0.5-1.4-1-1.9
		c-0.5-0.4-1.1-0.6-1.8-0.6c-0.6,0-1.2,0.2-1.7,0.5c-0.5,0.3-0.9,0.8-1.2,1.5s-0.4,1.5-0.4,2.4c0,1,0.1,1.8,0.4,2.5
		c0.3,0.7,0.7,1.2,1.1,1.5c0.5,0.3,1,0.5,1.7,0.5c0.7,0,1.4-0.2,1.9-0.7c0.5-0.5,0.9-1.2,1.1-2.2l-0.9-0.3
		C364.3,149.5,364,150.1,363.7,150.4z"/>
	<rect x="366.6" y="150.6" fill="#4972B0" width="1" height="1.2"/>
	<path fill="#4972B0" d="M374.1,129.3c-0.6-0.8-1.4-1.2-2.3-1.2c-0.6,0-1.1,0.2-1.6,0.5c-0.5,0.3-0.9,0.8-1.2,1.4
		c-0.3,0.6-0.5,1.3-0.5,2c0,1.1,0.3,2,0.9,2.8c0.6,0.8,1.4,1.2,2.3,1.2c0.6,0,1.1-0.2,1.6-0.5c0.5-0.3,0.9-0.8,1.2-1.4
		c0.3-0.6,0.5-1.3,0.5-2C375,131.1,374.7,130.1,374.1,129.3z M373.7,134.4c-0.5,0.7-1.2,1-2,1c-0.7,0-1.3-0.3-1.9-0.9
		c-0.6-0.7-0.9-1.5-0.9-2.4c0-0.9,0.2-1.6,0.7-2.3c0.5-0.7,1.2-1,2-1c0.7,0,1.3,0.3,1.9,0.9c0.6,0.7,0.9,1.5,0.9,2.4
		C374.5,133,374.2,133.8,373.7,134.4z"/>
	<path fill="#4972B0" d="M372.3,132.6c-0.1-0.1-0.2-0.2-0.3-0.2c0.3,0,0.5-0.2,0.7-0.4c0.2-0.2,0.3-0.5,0.3-0.8
		c0-0.2-0.1-0.5-0.2-0.6c-0.1-0.2-0.3-0.3-0.4-0.4c-0.2-0.1-0.5-0.1-0.9-0.1h-1.2v4.3h0.6v-1.8h0.3c0.2,0,0.4,0.1,0.5,0.2
		c0.1,0.1,0.3,0.5,0.6,1l0.3,0.7h0.7l-0.4-0.8C372.6,133.1,372.5,132.8,372.3,132.6z M371.6,131.9h-0.7v-1.3h0.6
		c0.3,0,0.4,0,0.5,0.1c0.1,0,0.2,0.1,0.2,0.2c0.1,0.1,0.1,0.2,0.1,0.4c0,0.2-0.1,0.4-0.2,0.5C372.1,131.8,371.9,131.9,371.6,131.9z"
		/>
</g>
</svg>
