<?xml version="1.0" encoding="utf-8"?>
<!-- Generator: Adobe Illustrator 22.0.1, SVG Export Plug-In . SVG Version: 6.00 Build 0)  -->
<svg version="1.1" id="Capa_1" xmlns="http://www.w3.org/2000/svg" xmlns:xlink="http://www.w3.org/1999/xlink" x="0px" y="0px"
	 viewBox="0 0 400 250" enable-background="new 0 0 400 250" xml:space="preserve">
<g>
	<path fill="#0574CA" d="M371.1,79.7c-2-4-5.4-6.9-9.3-8.8c-4.2-2.1-8.8-3-13.5-3.1c-8.7-0.3-17.3-0.1-26-0.2
		c-17.8-0.1-35.6,0-53.5,0c0,0,0,0,0,0c-22.3,0-44.7,0-67,0c-4.3,0-8.6,0-12.9-0.1c-1.5,0-2.1,0.6-2.3,2c-0.1,0.5-0.1,1,0,1.5
		l0,37.1c0,0,0,0.1,0,0.1c0,0,0,0.1,0,0.1l0,1l0,0.1c0,2.1,0.1,4.2,0.2,6.3c0.1,0.8,0,1.7-0.9,2.1c-0.9,0.4-1.5-0.3-2.2-0.8
		l-32-46.9c-1.3-2-2.8-2.7-5.1-2.6c-6.6,0.1-13.3,0.1-19.9,0c-2.7,0-3.1,0.3-3.1,2.9l-0.1,66.5c-0.1,0.5-0.5,1.1-1,1.2
		c-0.6,0.1-1-0.5-1.2-0.9L96.6,71.9c-0.2-0.6-0.4-1.2-0.6-1.6l0,0l0,0c-1-2.3-2.1-2.6-5.7-2.7c-0.1,0-0.2,0-0.3,0
		c-8-0.2-16,0.3-24-0.1c-1.6-0.1-2.5,0.6-3.1,2.2c-1.5,4.3-3.2,8.5-4.7,12.8c-2.4,6.7-5.1,13.3-7.7,20c-2.5,6.7-4.9,13.5-7.5,20.2
		c-0.9,2.2-1.6,4.5-2.5,6.7c-1.2,3.1-2.5,6.2-3.6,9.4c-1.6,4.4-3.3,8.8-4.9,13.2c-0.8,2.1-1.4,4.4-2.5,6.3c-0.4,0.6-0.8,1.3-0.5,2
		c0.4,0.8,1.2,0.6,1.9,0.6c8.1,0,16.1,0,24.2,0c1.7,0,2.6-0.7,2.9-2.2l1.7-6.4c0.4-1.2,0.8-2.4,1-3.7c0.5-2.6,1.9-3.5,4.6-3.4
		c9.1,0.1,18.2,0.3,27.3,0c2.3-0.1,3.3,0.5,4.1,2.7c1.2,3.5,2.3,7,3.2,10.6c0.6,2,0.9,2.4,3,2.4c14.2,0,28.5,0,42.7,0
		c4.3,0,4.2,0,4.2-4.3c0-14.4,0.1-28.9-0.2-43.3c0-0.9-0.1-2,0.9-2.4c0.7-0.3,1.2,0,1.7,0.4l32.4,47.3c1.1,1.7,2.3,2.3,4.3,2.3
		c6.9-0.1,13.8-0.1,20.8,0c3.2,0,3.4-0.2,3.1-3.2c0-0.4,0-0.9,0-1.3c0-21,0-42.1,0-63.1c0-3.2,0.8-4,3.9-4c5.4,0,10.9,0,16.3,0
		c3.2,0,3.9,0.8,3.9,4c0,21,0,42,0,63c0,0.8-0.1,1.5-0.2,2.3c-0.2,1.8,0.4,2.5,2.3,2.5c7.1,0,14.3-0.1,21.4-0.1c4.4,0,4.4,0,4.4-4.4
		c0-8.2,0-16.3-0.1-24.5c0-12.8,0-25.6-0.1-38.4c0-3.5,0.7-4.2,4.2-4.2c7.5,0,14.9,0,22.4,0c4.2,0,4.6,0.4,4.6,4.5
		c0,21.6,0,43.3-0.1,64.9c0,1.9,0.5,2.2,2.3,2.2c7.7,0,15.5,0,23.2,0c2.5,0,2.9-0.4,2.6-3c-0.1-0.5,0-1.1,0-1.6c0-8.9,0-17.9,0-26.8
		c0-2.9,0.8-3.7,3.7-3.7c0.4,0,0.9,0,1.3,0c7.1-0.1,14.3,0.4,21.3-0.9c4.1-0.7,8.3-1.6,11.9-3.8c6-3.7,10-8.9,11.8-15.9
		C376,96.4,375.3,87.9,371.1,79.7z M86.7,126H71.4c0,0-4,0.5-2.7-3.6l8.2-27c0,0,0.8-2.6,1.8-2.6c0,0,1.2-0.4,1.9,1.9l8.5,27.6
		C89.1,122.3,90.3,126,86.7,126z M335.8,107.6l-8.2,0.1c0,0-3.9,0.8-3.9-3.2v-16c0,0-0.3-3.4,2.7-3.4c3,0,4.8-0.1,4.8-0.1l1.1,0
		c0,0,13.7-0.9,15.4,10S339.9,107.5,335.8,107.6z"/>
	<path fill="#0574CA" d="M263.5,176.7c-39.2,0-78.5,0-117.7,0c0,0,0,0,0,0c-32.2,0-64.4,0-96.6,0c-7.2,0-14.5,0-21.7,0
		c-1.7,0-2.4,0.8-2.4,2.6c0,2.6,0.5,3.3,2.3,3.3c1.7,0,3.4-0.1,5.1-0.1c16.8,0,33.6,0,50.4,0c51.4,0,102.8,0,154.2,0
		c8.9,0,17.9,0,26.8,0c0.8,0,1.8,0.1,2.2-0.7c0.6-1.3,0.9-2.8,0.2-4.3C265.7,176.3,264.5,176.7,263.5,176.7z"/>
</g>
</svg>
