<svg xmlns="http://www.w3.org/2000/svg" width="325.438" height="325.438" viewBox="0 0 325.438 325.438">
  <g id="Group_1" data-name="Group 1" transform="translate(-2285.76 -153.015)">
    <path id="Path_1" data-name="Path 1" d="M266.167,322.012l-.7-.349v-1.048l.7-.349h3.492V294.428h-3.492l-.7-.349v-1.048l.7-.348h16.061l.7.348.7.35.7.349.7.349.7.7.7.7.7.7.349.7.349.7.349.7v3.492l-.349.7-.349.7-.349.7-.7.7-.7.7-.7.7-.7.35-.7.349.7.349.7.349.7.349.7.35.7.7.7.7.7.7.349.7.349.7.349.7v4.189l-.349.7-.349.7-.349.7-.7.7-.7.7-.7.7-.7.35-.7.348-.7.35-.7.349Zm16.061-16.41.7-.35.7-.349.349-.349.35-.35.349-.348.349-.35.349-.349.349-.7.35-.7v-3.492l-.35-.7-.349-.7-.349-.35-.349-.349-.349-.349-.35-.349-.349-.349-.7-.35-.7-.349H271.754V305.6Zm1.4,14.664.7-.349.7-.349.349-.349.349-.35.35-.349.348-.349.35-.349.349-.7.349-.7v-4.189l-.349-.7-.349-.7-.35-.349-.348-.35-.35-.348-.349-.35-.349-.349-.7-.349-.7-.349-.7-.349-.7-.35-.7-.349h-9.776v12.919Z" transform="translate(2052.479 9.734)" fill="#fff"/>
    <path id="Path_2" data-name="Path 2" d="M306.07,322.012l-.7-.349v-1.048l.7-.349h7.681V294.428H306.07l-.7-.349v-1.048l.7-.348h17.457l.7.348v1.048l-.7.349h-7.681v25.838h7.681l.7.349v1.048l-.7.349Z" transform="translate(2052.479 9.734)" fill="#fff"/>
    <path id="Path_3" data-name="Path 3" d="M349.463,322.361l-.7-.349-.7-.349-.7-.35-.7-.348-.7-.35-.7-.7-.7-.7-.7-.7-.7-.7-.349-.7-.349-.7-.349-.7-.35-.7-.348-.7-.35-.7-.349-.7V301.761l.349-.7.35-.7.348-.7.35-.7.349-.7.349-.7.349-.7.7-.7.7-.7.7-.7.7-.7.7-.349.7-.349.7-.35.7-.348.7-.35h6.285l.7.35.7.348.7.35.7.349.7.349.7.7.7.7.7.7h.349v-2.793l.349-.7h1.4l.349.7v9.776l-.349.7h-1.048l-.349-.7v-2.1l-.349-.7-.349-.7-.349-.7-.35-.7-.349-.7-.349-.35-.349-.348-.349-.35-.35-.349-.348-.349-.7-.349-.7-.349-.7-.35-.7-.349-.7-.349h-4.889l-.7.349-.7.349-.7.35-.7.349-.7.349-.349.349h-.088l-.262.349-.348.35h-.088l-.262.348-.349.35-.349.7-.349.7-.349.7-.35.7-.349.7-.349.7v11.173l.349.7.349.7.35.7.349.7.349.7.349.7.349.349v.087l.35.262.348.349v.088l.35.261.349.349.7.35.7.349.7.349.7.349.7.349h4.889l.7-.349.7-.349.7-.349.7-.349.7-.35.348-.349.35-.349.349-.349.349-.349.349-.349.349-.7.35-.7.349-.7.349-.7v-2.094h-3.142l-.7-.35v-1.047l.7-.349h8.38l.7.349v1.047l-.7.35h-3.143v9.077l-.349.7h-1.4l-.349-.7V318.52h-.349l-.7.7-.7.7-.7.7-.7.35-.7.348-.7.35-.7.349-.7.349Z" transform="translate(2052.479 9.734)" fill="#fff"/>
    <path id="Path_4" data-name="Path 4" d="M392.857,322.361l-.7-.349-.7-.349-.7-.35-.7-.348-.7-.35-.7-.7-.7-.7-.7-.7-.7-.7-.348-.7-.35-.7-.349-.7-.349-.7-.349-.7-.349-.7-.35-.7V301.761l.35-.7.349-.7.349-.7.349-.7.349-.7.35-.7.348-.7.7-.7.7-.7.7-.7.7-.7.7-.349.7-.349.7-.35.7-.348.7-.35h6.285l.7.35.7.348.7.35.7.349.7.349.7.7.7.7.7.7.7.7.348.7.349.7.35.7.349.7.349.7.349.7.35.7v11.173l-.35.7-.349.7-.349.7-.349.7-.35.7-.349.7-.348.7-.7.7-.7.7-.7.7-.7.7-.7.35-.7.348-.7.35-.7.349-.7.349Zm5.587-1.746.7-.349.7-.349.7-.349.7-.349.7-.35.349-.349.349-.349.349-.349.349-.349.349-.349.35-.7.349-.7.349-.7.349-.7.35-.7.348-.7V301.761l-.348-.7-.35-.7-.349-.7-.349-.7-.349-.7-.35-.7-.349-.35-.349-.348-.349-.35-.349-.349-.349-.349-.7-.349-.7-.349-.7-.35-.7-.349-.7-.349h-4.889l-.7.349-.7.349-.7.35-.7.349-.7.349-.349.349h-.087l-.262.349-.349.35h-.088l-.261.348-.35.35-.349.7-.349.7-.349.7-.349.7-.35.7-.348.7v11.173l.348.7.35.7.349.7.349.7.349.7.349.7.35.349v.087l.349.262.349.349v.088l.349.261.349.349.7.35.7.349.7.349.7.349.7.349Z" transform="translate(2052.479 9.734)" fill="#fff"/>
    <path id="Path_5" data-name="Path 5" d="M427.871,322.012l-.7-.349v-1.048l.7-.349h7.681V294.428h-9.078v8.729l-.349.7h-1.4l-.35-.7v-9.776a.742.742,0,0,1,.7-.7h23.045a1.042,1.042,0,0,1,.7.7v9.776l-.348.7h-1.4l-.349-.7v-8.729h-9.079v25.838h7.682l.7.349v1.048l-.7.349Z" transform="translate(2052.479 9.734)" fill="#fff"/>
    <path id="Path_6" data-name="Path 6" d="M466.028,322.012l-.7-.349v-1.048l.7-.349h3.491V294.428h-3.491l-.7-.349v-1.048l.7-.348h22.346a1.046,1.046,0,0,1,.7.7v9.776l-.349.7h-1.4l-.349-.7v-8.729H471.614V305.6h6.633v-3.143l.35-.7h1.4l.349.7v8.38l-.349.7h-1.4l-.35-.7v-3.492h-6.633v12.919h15.363v-8.729l.349-.7h1.4l.349.7v9.776a.744.744,0,0,1-.7.7Z" transform="translate(2052.479 9.734)" fill="#fff"/>
    <path id="Path_7" data-name="Path 7" d="M513.262,322.361l-.7-.349-.7-.349-.7-.35-.7-.7-.7-.7h-.35v1.4l-.349.7h-1.4l-.35-.7v-8.379l.35-.7h1.4l.349.7v2.793l.35.7.348.7.349.7.349.7.35.349v.088l.349.262.349.349.7.349.7.349.7.349h6.285l.7-.349.7-.349.7-.349.349-.349.349-.35.35-.349.349-.7.349-.7.348-.7v-4.189l-.348-.7-.349-.7-.349-.7-.35-.348-.349-.35-.349-.349-.7-.349-.7-.349-.7-.349-.7-.35h-8.379l-.7-.349-.7-.349-.7-.349-.7-.7-.7-.7-.7-.7-.349-.7-.349-.7-.35-.7-.349-.7v-3.492l.349-.7.35-.7.349-.7.349-.7.7-.7.7-.7.7-.7.7-.35.7-.348.7-.35h7.681l.7.35.7.348.7.35.7.7.7.7h.349v-1.4l.349-.7h1.4l.35.7v8.38l-.35.7h-1.4l-.349-.7v-2.794l-.349-.7-.35-.7-.349-.7-.349-.7-.348-.349-.35-.349-.349-.349-.7-.35-.7-.349-.7-.349h-6.285l-.7.349-.7.349-.7.35-.35.349h-.087l-.262.349-.349.349-.35.7-.349.7-.349.7v3.492l.349.7.349.7.35.7.349.348v.088l.349.262.35.349.7.349.7.35.7.348h8.38l.7.35.7.349.7.349.7.349.7.7.7.7.7.7.349.7.35.7.349.7.349.7v4.189l-.349.7-.349.7-.35.7-.349.7-.7.7-.7.7-.7.7-.7.35-.7.349-.7.349Z" transform="translate(2052.479 9.734)" fill="#fff"/>
    <circle id="Ellipse_1" data-name="Ellipse 1" cx="161.719" cy="161.719" r="161.719" transform="translate(2286.76 154.015)" fill="none" stroke="#fff" stroke-miterlimit="10" stroke-width="2"/>
    <circle id="Ellipse_2" data-name="Ellipse 2" cx="154.018" cy="154.018" r="154.018" transform="translate(2294.461 161.716)" fill="none" stroke="#fff" stroke-miterlimit="10" stroke-width="2"/>
    <path id="Path_8" data-name="Path 8" d="M325.8,204.619a5.909,5.909,0,0,1,1.274,2.856q.326,2.238-1.407,5.811.045.064,1.223,1.9,1.639,2.223,4.729,6.8a12.155,12.155,0,0,0,1.085,1.425,19.78,19.78,0,0,1,1.3,1.6A6.949,6.949,0,0,1,335.231,228l-.447.311q-.574.4-2.878-2.642-1.431-1.988-2.829-4-4.687-6.264-5.486-7.414-.687-.99-1.512-2.312-1.1-1.65-3.278-4.921a5.962,5.962,0,0,1,2.617-4.615Q323.11,201.23,325.8,204.619Zm-1.41,1.311q-1.4-2.011-2.328-1.034a4.724,4.724,0,0,0,.45,2.625,14,14,0,0,0,1.386,2.541,1.533,1.533,0,0,0,.748.665,4.889,4.889,0,0,0,.517-2.255A4.324,4.324,0,0,0,324.389,205.93Z" transform="translate(2052.479 9.734)" fill="#fff"/>
    <path id="Path_9" data-name="Path 9" d="M350.481,193.407a10.777,10.777,0,0,1,.342,5.526q-.568,4.1-2.747,5.033a3.022,3.022,0,0,1-3.018-.523,4.815,4.815,0,0,1-1.786-1.985,22.322,22.322,0,0,1-.652-3.784,1.253,1.253,0,0,0-1.058.5.711.711,0,0,1-.413-.373q-.46-1.071.765-3.588t2.666-3.008Q348.867,189.656,350.481,193.407Zm-1.9.9a4.059,4.059,0,0,0-.742-1.036q-.838-.867-1.394-.586-1.488.681-1.5,3.9a10,10,0,0,0,.5,3.722,2.881,2.881,0,0,0,2.121,1.586,7.308,7.308,0,0,0,1.357-3.737A7.573,7.573,0,0,0,348.582,194.308Z" transform="translate(2052.479 9.734)" fill="#fff"/>
    <path id="Path_10" data-name="Path 10" d="M377.25,185.106a2.867,2.867,0,0,1,.018.493,3,3,0,0,0,.04.606c-.275.213-.469.3-.58.273a10.61,10.61,0,0,1-1.052-2.132q-.675-1.612-1.857-1.38-.268.053-.981.866a9.562,9.562,0,0,0-2.038,4.959,27.75,27.75,0,0,0-.193,4.873,7.429,7.429,0,0,1-.187,2.891q-2.544-.651-4.065-8.4-1.056-5.382.47-5.682.954-.186,1.284,1.493.037.19.138,1.815t.086,1.748l.36,1.634a10.055,10.055,0,0,1,3.329-7.075,4.1,4.1,0,0,1,1.673-.963q1.3-.254,2.474,1.5A7.048,7.048,0,0,1,377.25,185.106Z" transform="translate(2052.479 9.734)" fill="#fff"/>
    <path id="Path_11" data-name="Path 11" d="M429.575,196.084a3.907,3.907,0,0,1-.811,1.336l-.722-.158a3.516,3.516,0,0,1-.5-2.817,10.585,10.585,0,0,1,.38-1.191,5.632,5.632,0,0,0,.272-1.055c.086-.512.17-1.024.257-1.536a3.844,3.844,0,0,0,.016-1.35,57.334,57.334,0,0,0-4.235,4.248q-2.313,2.561-3.11,2.385-1.063-.231-.573-2.474.108-.493.522-1.837.132-.607.44-2.014.268-1.413.453-2.25a16.8,16.8,0,0,0-3.368,4.379,14.736,14.736,0,0,1-3.149,4.108l-.722-.158q-.241-1.446-.224-1.521a3.58,3.58,0,0,1,.337-.723,3.4,3.4,0,0,0,.346-.761l.843-4.394q.3-1.368,1.209-4.792.395-1.626.183-1.752.843-.571,1.108-.514a1.71,1.71,0,0,1,.493.207,1.556,1.556,0,0,0,.416.192q-.007.038-.648,3.321-.429,2.138-.832,3.442a3.174,3.174,0,0,0,.174.476,15.881,15.881,0,0,0,2.374-3.024,4.5,4.5,0,0,1,2.381-2.146l.46.26c.1-.085.3-.095.6-.028a14.7,14.7,0,0,1-.232,3.971q-.366,2.032-.692,4.069a29.453,29.453,0,0,0,3.6-3.711q2-2.229,3.256-1.955a1.759,1.759,0,0,1,.582.246q.474.384-.073,4.524Q430,194.147,429.575,196.084Z" transform="translate(2052.479 9.734)" fill="#fff"/>
    <path id="Path_12" data-name="Path 12" d="M447.366,203.632c-.117.261-.483.472-1.1.639a2.882,2.882,0,0,1-1.062.186,1.839,1.839,0,0,1-.95-1.786,3.511,3.511,0,0,1,.19-1.663q.237-.534,3.969-6.406a4.333,4.333,0,0,0,.193-.766,4.173,4.173,0,0,1,.257-.907.748.748,0,0,1,.214-.288q.468-.387,1.34-1.191a1.609,1.609,0,0,1,1.032.077,1.366,1.366,0,0,1,.376.253,1.021,1.021,0,0,0,.234.191,7.513,7.513,0,0,0-.389,1.061,5.613,5.613,0,0,1-.215.672q-.078.177-2.3,3.721t-2.3,3.721q-.6,1.352-.139,2.027l.484-.126a2.915,2.915,0,0,0,.168.245A.333.333,0,0,1,447.366,203.632Zm4.047-14.592a2.676,2.676,0,0,1-1.015-.113,1.457,1.457,0,0,1-.388-.323,1.5,1.5,0,0,0-.424-.338,1.959,1.959,0,0,0-.656-.058,1.94,1.94,0,0,1-.69-.075q-.783-.35-.322-1.379.35-.781,1.565-.451.193.044,1.578.662.177.08.355.542a7.872,7.872,0,0,0,.331.786Z" transform="translate(2052.479 9.734)" fill="#fff"/>
    <path id="Path_13" data-name="Path 13" d="M477.052,206.021c-.311.446-.651.638-1.016.573a6.1,6.1,0,0,0-2.285-1.211,13.892,13.892,0,0,0-4.218-1.086q-2.457-.146-3.368,1.163-.689.99.619,2.516a22.369,22.369,0,0,1,2.315,2.937,3.918,3.918,0,0,1-.536,4.176,4.559,4.559,0,0,1-1.83,1.474,2.319,2.319,0,0,1-2.353-.025,2.075,2.075,0,0,1-.693-2,3.52,3.52,0,0,1,.486-1.653,2.658,2.658,0,0,1,1.083-.809c.516-.242.869-.3,1.062-.162q.83.576.386,1.215a3.053,3.053,0,0,1-.446.472,2.92,2.92,0,0,0-.4.407.275.275,0,0,0,.078.433q.606.423.984-.121a2.532,2.532,0,0,0,.313-2.766,18.37,18.37,0,0,0-1.927-2.336,5.853,5.853,0,0,1-1.579-2.874,2.831,2.831,0,0,1,.3-2.094q1.712-2.457,6.947-1.61a14.821,14.821,0,0,1,5.781,1.84A.982.982,0,0,1,477.052,206.021Z" transform="translate(2052.479 9.734)" fill="#fff"/>
    <path id="Exclusion_1" data-name="Exclusion 1" d="M37.333,24.1l-.187,0a2.827,2.827,0,0,1-.309-1.623,4.069,4.069,0,0,0-.038-.729,5.971,5.971,0,0,0-1.884.551,5.447,5.447,0,0,1-2.255.567,5.218,5.218,0,0,1-1.082-.119c-.328-.217-.263-.5-.193-.8a.835.835,0,0,0-.044-.714,14.879,14.879,0,0,0-3.28.876,12.5,12.5,0,0,1-4.406.942c-.244,0-.494-.009-.744-.028-.371-.24-.409-.781-.447-1.3a4.6,4.6,0,0,0-.09-.726A15.855,15.855,0,0,1,16.593,22a17.794,17.794,0,0,1-6.84-1.312c-.311-.392-.093-.792.1-1.144a2.561,2.561,0,0,0,.163-.336c-.5.018-1.032.033-1.606.033-.246,0-.486,0-.714-.009a7.383,7.383,0,0,1-.774.043,4.775,4.775,0,0,1-1.568-.242c-.337-.052-.663-.115-.97-.186l-.114-.026C2.939,18.51.175,17.87.016,16.9c-.15-.9.78-1.616,1.806-2.254A.842.842,0,0,1,2.1,14.3c.974-.737,1.776-1.339,2.523-1.895l0-.017,0-.017.05-.01C7.029,10.616,9.012,9.2,10.918,7.9A43.309,43.309,0,0,1,27.042,0a24.078,24.078,0,0,0,4.945.363h1.288c1.047,0,2.181.01,3.385.086a39.074,39.074,0,0,1,5.757.955,37.689,37.689,0,0,0,5.766.946c.685.038,1.333.043,2.02.047.786.005,1.6.011,2.462.072.253.018.514.027.774.027a20.6,20.6,0,0,0,4.661-.7,22.539,22.539,0,0,1,4.3-.7c1.71-.059,3.53-.206,5.291-.349,2.25-.182,4.577-.371,6.731-.38H74.5A24.642,24.642,0,0,1,81.468,1.5,57.344,57.344,0,0,1,91.839,5.114a35.107,35.107,0,0,1,9.079,5.756l.628.443c.549.388,1.116.789,1.708,1.2a9.8,9.8,0,0,0,1.16.188,3.426,3.426,0,0,1,2.11.687l-.01.166v.006c0,.053-.007.107-.01.16a11.42,11.42,0,0,1-7.19,3.2,1.042,1.042,0,0,0,.04.668,1.044,1.044,0,0,1,.041.667,8.8,8.8,0,0,1-4.256.894c-.84,0-1.687-.059-2.584-.122l-.067,0c-.847-.06-1.808-.127-2.784-.127a16.585,16.585,0,0,0-2,.112,3.765,3.765,0,0,0-1.265.486,4.454,4.454,0,0,1-1.294.514,7.715,7.715,0,0,1-1.315.1,20.03,20.03,0,0,1-2.454-.2l-.028,0a19.79,19.79,0,0,0-2.383-.2,6.77,6.77,0,0,0-1.462.145c.04.3.341.379.633.454.34.087.691.176.629.625a1.384,1.384,0,0,1-1.44.7c-.215,0-.441-.014-.64-.026h-.013c-.21-.013-.409-.025-.6-.025-.065,0-.123,0-.178,0-1.073.057-2.274.071-3.546.087l-1.072.014a19.784,19.784,0,0,1-4.332.5,12.425,12.425,0,0,1-1.828-.123,13.527,13.527,0,0,0-1.752.381,1.452,1.452,0,0,1-1.085-.782A1.832,1.832,0,0,0,61.628,21,2.543,2.543,0,0,1,59.353,22.6,2.058,2.058,0,0,1,57.6,21.578a1.3,1.3,0,0,0-.527-.116,2.667,2.667,0,0,0-1.526.754,2.52,2.52,0,0,1-1.188.651c-.082.007-.163.01-.241.01-1.186,0-1.889-.779-2.213-2.453-.072-.058-.13-.108-.184-.156a15.161,15.161,0,0,0-1.87,1.009c-1.308.779-2.792,1.662-4.014,1.662a2.115,2.115,0,0,1-2.029-1.578,10.34,10.34,0,0,0-2.272,1.211A7.228,7.228,0,0,1,37.333,24.1Zm37.909-4.091a6.261,6.261,0,0,1-1.238.76,2.247,2.247,0,0,0,1.644-.533A3.078,3.078,0,0,1,75.242,20.008ZM24.392,7.648a6.281,6.281,0,0,0-3.078,1.21,9.942,9.942,0,0,0-2.136,2.282.79.79,0,0,0,.5.218c.52,0,.809-.737.889-1.127A8.53,8.53,0,0,1,22.328,9.1,6.975,6.975,0,0,0,24.392,7.648Zm49.121-.856h0a3.506,3.506,0,0,0,.7,2.469,5.3,5.3,0,0,1,.568,1.1c.024,0,.048,0,.074,0a.444.444,0,0,0,.445-.3,2.444,2.444,0,0,1-.6-1.515c-.137-.8-.279-1.622-1.183-1.76ZM30.69,5.388a5.366,5.366,0,0,0-3.123,2.959,1.944,1.944,0,0,0-.01,1.832,6.664,6.664,0,0,1,1.908-3.254A10.9,10.9,0,0,0,30.69,5.388Zm25.979-.5a6.069,6.069,0,0,0,.356,4.846C57.253,9.038,57.381,5.855,56.669,4.886Zm-11.3-.223a6.833,6.833,0,0,0-3.225,3.62c-.007.023-.017.054-.029.09-.085.256-.26.788-.074,1.071a.439.439,0,0,0,.349.185A8.52,8.52,0,0,1,44.118,6.64,7.5,7.5,0,0,0,45.373,4.663ZM67.913,5.936a2.984,2.984,0,0,0,1.028,2.089,3.718,3.718,0,0,1,.913,1.361c.024,0,.048,0,.074,0a.445.445,0,0,0,.445-.3c-.088-.169-.175-.342-.259-.51A5.045,5.045,0,0,0,67.913,5.936ZM52.362,4.61c-.982,1.1.015,3.711.864,4.713a12.481,12.481,0,0,0-.754-4.334Q52.415,4.793,52.362,4.61Zm24.228.883h0c.184,1.8,1.358,2.725,2.759,3.668,0-1.191-1.164-2.234-2.194-3.154-.2-.179-.39-.349-.565-.514ZM38.974,4.082l-.052,0a7.337,7.337,0,0,1-.972,2.369,5.3,5.3,0,0,0-.8,2.007.794.794,0,0,0,.34.1c.32,0,.413-.354.51-.73a2.266,2.266,0,0,1,.228-.627c.13-.2.283-.407.431-.6a2.508,2.508,0,0,0,.754-2.316.345.345,0,0,1-.2-.1A.333.333,0,0,0,38.974,4.082ZM36.6,4.763l-.048,0-.309.175c-1.243.7-3.121,1.752-2.563,3.135a4.018,4.018,0,0,1,1.649-1.483c.752-.466,1.461-.906,1.545-1.64C36.843,4.825,36.754,4.763,36.6,4.763ZM62.21,4.075c-.6,1.071.725,2.7,1.516,3.671l.072.089c.227-1.143-.591-2.319-1.249-3.264C62.428,4.4,62.313,4.233,62.21,4.075ZM27.391,2.35a7.1,7.1,0,0,0-4.727,3.69,11.382,11.382,0,0,0,1.864-1.387,8.223,8.223,0,0,1,2.831-1.807q.009-.13.017-.26C27.381,2.506,27.386,2.428,27.391,2.35Zm42.31.532-.1,0c.315,1.035,1.373,1.436,2.4,1.824a7.083,7.083,0,0,1,1.6.759.342.342,0,0,1,.1-.2.329.329,0,0,0,.1-.287,13,13,0,0,1-1.108-.74A5.472,5.472,0,0,0,69.7,2.882Zm-37.709-.59a4.171,4.171,0,0,0-3.414,2.3l.316-.133a10.92,10.92,0,0,0,3.653-2.11A2.856,2.856,0,0,0,31.992,2.292Zm29.816-.439c-.234.034-.44.066-.63.1ZM26.708.879c-.179.014-.362.034-.557.06s-.442.074-.7.134C25.9.994,26.326.929,26.708.879Z" transform="translate(2395.978 351.373)" fill="#fff" stroke="rgba(0,0,0,0)" stroke-miterlimit="10" stroke-width="1"/>
  </g>
</svg>
