<?xml version="1.0" encoding="utf-8"?>
<!-- Generator: Adobe Illustrator 22.0.1, SVG Export Plug-In . SVG Version: 6.00 Build 0)  -->
<svg version="1.1" id="Capa_1" xmlns="http://www.w3.org/2000/svg" xmlns:xlink="http://www.w3.org/1999/xlink" x="0px" y="0px"
	 viewBox="0 0 400 250" enable-background="new 0 0 400 250" xml:space="preserve">
<g>
	<path fill="#004E81" d="M179.8,212.3c-3-15-6.1-30-9.1-45c-0.2-1.1-0.6-1.4-1.7-1.3c-6.7,0.1-13.4,0.1-20.1,0
		c-1.1,0-1.6,0.4-2.1,1.3c-8.4,17.2-16.9,34.3-25.4,51.4c-3,6.2-6.1,12.4-9.1,18.6c7.7,0,15.4,0,23.1,0c1.1-2.5,2.2-5,3.2-7.5
		c0.3-0.7,0.7-1,1.5-1c7,0,13.9,0,20.9,0c0.8,0,1.1,0.2,1.2,1c0.3,2.5,0.9,5,1,7.5c7.2,0,14.4,0,21.6,0c0-0.2,0-0.5-0.1-0.7
		C183.1,228.4,181.5,220.4,179.8,212.3z M145.7,213.9c-1.1,0-0.4-0.8-0.2-1.1c1.8-4.4,3.7-8.8,5.5-13.1c1.6-3.8,3.2-7.6,4.8-11.4
		c0.1,0,0.2,0,0.3,0c1.2,8.5,2.5,17,3.7,25.6C155,213.9,150.3,213.9,145.7,213.9z"/>
	<path fill="#004E81" d="M310.2,167.2c-0.2-1.1-0.7-1.2-1.6-1.2c-6.7,0-13.4,0-20.1,0c-1.1,0-1.6,0.3-2.1,1.3
		c-10.1,20.6-20.2,41.1-30.3,61.6c-1.4,2.8-2.7,5.6-4,8.4c7.7,0,15.4,0,23.1,0c1.1-2.5,2.2-5.1,3.2-7.6c0.3-0.6,0.6-0.9,1.3-0.9
		c7,0,14.1,0,21.1,0c0.5,0,0.9-0.1,1,0.7c0.2,2.6,0.8,5.2,0.8,7.8c7.3,0,14.6,0,21.9,0c-0.1-0.3-0.2-0.6-0.2-0.8
		C319.5,213.4,314.8,190.3,310.2,167.2z M297.3,213.9c-4.3,0-8.5,0-13,0c3.6-8.7,7.2-17.2,11-26.1c0.6,3.8,1.1,7.2,1.6,10.6
		c0.7,4.6,1.3,9.1,2,13.7C299.2,213.9,299.2,213.9,297.3,213.9z"/>
	<path fill="#004E81" d="M256.6,182.5c1-5.3,2-10.5,3-15.7c0.2-1,0-1.1-0.9-1.1c-20.1,0-40.2,0-60.3,0c-0.9,0-1.2,0.4-1.3,1.1
		c-1,5.2-1.9,10.3-3,15.4c-0.2,1.2,0,1.4,1.2,1.4c5.9-0.1,11.8,0,17.7,0c1,0,1.3,0.2,1.1,1.2c-0.3,1.7-0.5,3.4-0.7,5
		c-1.8,12.2-3.6,24.4-5.5,36.6c-0.5,3.6-0.9,7.2-1.7,10.8c7.7,0,15.4,0,23.1,0c0.8-5.7,1.6-11.3,2.5-17c1.7-11.7,3.4-23.5,5.1-35.2
		c0.2-1.1,0.5-1.5,1.6-1.4c5.6,0.1,11.2,0,16.8,0C256,183.7,256.5,183.4,256.6,182.5z"/>
	<path fill="#004E81" d="M111.1,166c-7,0.1-13.9,0.1-20.9,0c-1,0-1.2,0.4-1.4,1.2c-3.2,16.2-6.5,32.4-9.7,48.6
		c-1.4,7.2-2.9,14.4-4.4,21.6c7.8,0,15.6,0,23.4,0c0.4-2.1,0.9-4.3,1.3-6.4c4.2-21.2,8.5-42.4,12.7-63.5
		C112.3,166.3,112.2,165.9,111.1,166z"/>
	<path fill="#004E81" d="M206.4,13.6c6.1,5.7,11.2,12.1,15.2,19.4c0.4,0.8,0.8,0.7,1.5,0.4c4.2-1.9,8-4.4,11.5-7.3
		c0.8-0.6,0.7-1-0.1-1.6c-5.3-4.1-11.1-7.1-17.4-9.2c-3.5-1.2-7.1-1.8-10.7-2.6c-0.2,0-0.4,0-0.6,0
		C205.9,13.1,206.2,13.3,206.4,13.6z"/>
	<path fill="#004E81" d="M165.4,26.1c3.5,2.8,7.2,5.4,11.4,7.2c0.8,0.3,1.2,0.4,1.7-0.5c2.2-4.1,4.8-8,7.8-11.6
		c2.5-3,5.3-5.7,7.9-8.5c-0.4,0-0.8,0-1.2,0c-1.4,0.3-2.7,0.6-4.1,0.9c-8.6,1.9-16.4,5.5-23.4,10.9
		C164.8,25.1,164.6,25.4,165.4,26.1z"/>
	<path fill="#004E81" d="M374.5,85.4c-35.9,0-71.8,0-107.7,0c-0.9,0-1.1,0.4-1.3,1.1c-3,13.9-10.6,24.9-21.7,33.6
		c-6.8,5.4-14.4,9.6-22.4,13c-0.6,0.3-1.4,0.3-1,1.6c3.6,9.5,14.6,17.3,24.8,17.3c19.7,0,39.3,0,59,0c1.4,0,2.7-0.1,4-0.5
		c6.7-1.7,11.2-6.1,14.6-11.9c0.2-0.4,0.6-0.8,0.5-1.3c-0.6,0-1.2,0-1.8,0c-19.1,0-38.1,0-57.2,0c-1.1,0-2.1-0.1-3-0.8
		c-1.3-0.9-1.2-2.1,0.3-2.8c0.9-0.4,1.9-0.4,2.9-0.4c18.9,0,37.9,0,56.8,0c4.2,0,7.9-1.3,11.2-3.8c3.2-2.4,5.7-5.3,7.7-8.6
		c0.2-0.4,0.6-0.7,0.5-1.2c-0.5,0-1.1,0-1.6,0c-21.9,0-43.9,0-65.8,0c-1,0-2.1-0.1-2.9-0.6c-1.2-0.8-1.2-2,0-2.8
		c0.9-0.6,1.8-0.6,2.8-0.6c22.6,0,45.2,0,67.7,0c2.3,0,4.4-0.6,6.4-1.7c3.5-2,6.1-5,8.3-8.3c0.7-1.1,1.5-2.2,2-3.7
		c-0.6,0-1.1,0-1.5,0c-5.7,0-11.5,0-17.2,0c-18.8,0-37.7,0-56.5,0c-0.9,0-1.8,0-2.7-0.5c-0.7-0.4-1.1-0.9-1.1-1.8
		c0.1-0.9,0.6-1.2,1.4-1.5c0.8-0.3,1.6-0.3,2.4-0.3c25.2,0,50.4,0,75.6,0c2.9,0,5.5-0.8,7.7-2.5c3.9-2.9,6.7-6.7,9.3-10.9
		C374.7,85.5,374.6,85.4,374.5,85.4z"/>
	<path fill="#004E81" d="M80.9,134.4c18.2-0.4,36.5-0.1,54.7-0.1c1,0,2,0,2.9,0.4c1.3,0.7,1.4,1.8,0.3,2.7c-0.9,0.7-2,0.9-3.2,0.9
		c-19.2,0-38.3,0-57.5,0c-0.5,0-1,0-1.6,0c0.8,1.7,1.7,3.1,2.7,4.4c4.7,6.1,10.6,9.5,18.6,9.4c18.8-0.2,37.7-0.1,56.5-0.1
		c10.5,0,21.1-7.2,25.1-16.9c0.5-1.1,0.4-1.6-0.8-2.1c-8.6-3.6-16.6-8.2-23.8-14.2c-10.1-8.5-17.1-18.9-20-31.9
		c-0.3-1.3-0.7-1.6-2-1.6c-35.3,0-70.6,0-106,0c-0.5,0-1,0-1.7,0c2.2,3.7,4.6,6.9,7.6,9.6c2.9,2.6,6.3,3.9,10.3,3.9
		c25-0.1,49.9,0,74.9-0.1c0.9,0,1.8,0,2.6,0.3c1.5,0.7,1.6,2.2,0.3,3.1c-0.9,0.7-2,0.7-3.1,0.7c-24.5,0-48.9,0-73.4,0
		c-0.5,0-1,0-1.8,0c1.6,3.3,3.6,6,6,8.5c3.4,3.5,7.4,5.3,12.4,5.3c22-0.2,44.1-0.1,66.1-0.1c0.9,0,1.8,0,2.7,0.6
		c1.3,0.8,1.3,2.1,0,2.9c-0.9,0.6-1.9,0.6-3,0.6c-21.9,0-43.9,0-65.8,0c-0.6,0-1.1,0-2,0c0.9,1.4,1.6,2.5,2.3,3.5
		C66.2,130.8,72.2,134.6,80.9,134.4z"/>
	<path fill="#004E81" d="M160.6,105.4c0.7,0.7,1.1,0.9,2,0.2c3.7-3.1,7.8-5.6,12.2-7.6c1.1-0.5,1.4-0.9,0.9-2.1
		c-3.5-8.2-5.4-16.7-6-25.5c-0.1-1-0.4-1.2-1.3-1.2c-3.6,0-7.3,0-10.9,0c-3.7,0-7.5,0-11.2,0c-0.7,0-1,0.1-1,0.9
		C146.3,83.6,151.3,95.4,160.6,105.4z"/>
	<path fill="#004E81" d="M239,105.7c9.3-9.7,14.5-21.3,15.7-34.7c0.1-1.9,0.1-1.9-1.9-1.9c-7,0-14,0-21,0c-1.1,0-1.4,0.3-1.4,1.4
		c0,3.2-0.5,6.4-1,9.5c-1,5.6-2.7,10.9-4.9,16.1c-0.3,0.7-0.4,1.2,0.5,1.6c4.6,2.2,8.8,4.9,12.7,8.1
		C238.2,106.2,238.5,106.2,239,105.7z"/>
	<path fill="#004E81" d="M146.3,65.1c3.7,0,7.4,0,11.1,0c3.6,0,7.3,0,10.9,0c0.9,0,1.3-0.1,1.3-1.2c0.5-8.8,2.5-17.3,6-25.4
		c0.4-1,0.3-1.5-0.7-1.9c-4.4-2-8.5-4.5-12.2-7.6c-1-0.8-1.4-0.7-2.3,0.2c-9.2,9.9-14.2,21.5-15.3,35
		C145.1,65.1,145.6,65.1,146.3,65.1z"/>
	<path fill="#004E81" d="M224.5,38.6c3.5,8.1,5.5,16.6,5.8,25.4c0,0.9,0.3,1.1,1.2,1.1c3.6,0,7.3,0,10.9,0c3.6,0,7.3,0,10.9,0
		c1.1,0,1.3-0.3,1.2-1.3c-0.8-13.6-6.2-25.2-15.6-35c-0.6-0.6-0.9-0.6-1.5-0.1c-3.8,3.2-7.9,5.8-12.3,7.9
		C224.1,37.2,224.1,37.6,224.5,38.6z"/>
	<path fill="#004E81" d="M196.9,69.1c-3.6,0.1-7.3,0-10.9,0c-3.6,0-7.3,0-10.9,0c-1,0-1.4,0.1-1.3,1.2c0.4,8.4,2.2,16.5,5.6,24.3
		c0.3,0.8,0.7,1,1.5,0.7c5.2-1.8,10.6-3,16.1-3.1c1,0,1.2-0.4,1.2-1.3c0-6.9,0-13.7,0-20.6C198.1,69.3,197.9,69.1,196.9,69.1z"/>
	<path fill="#004E81" d="M197.3,42.2c-5.7-0.2-11.3-1.4-16.6-3.3c-0.7-0.2-0.9-0.1-1.2,0.5c-3.4,7.8-5.3,16-5.7,24.5
		c0,0.9,0.2,1.2,1.1,1.2c3.7,0,7.4,0,11.1,0c3.6,0,7.3,0,10.9,0c0.8,0,1.3-0.1,1.2-1.1c0-7,0-13.9,0-20.9
		C198.1,42.6,198,42.2,197.3,42.2z"/>
	<path fill="#004E81" d="M203.1,92.1c5.6,0.2,11,1.3,16.2,3.1c0.7,0.2,1,0.1,1.3-0.6c3.4-7.8,5.4-15.9,5.7-24.4
		c0-1.1-0.3-1.3-1.3-1.2c-3.6,0.1-7.2,0-10.8,0c-3.7,0-7.4,0-11.1,0c-0.8,0-1.1,0.2-1.1,1c0,7,0,13.9,0,20.9
		C202,91.7,202.2,92.1,203.1,92.1z"/>
	<path fill="#004E81" d="M203.2,65.1c3.6,0,7.3,0,10.9,0c3.5,0,7.1-0.1,10.6,0c1.3,0,1.6-0.3,1.6-1.6c-0.3-8.2-2.3-16-5.5-23.5
		c-0.5-1.1-0.8-1.3-2-0.9c-5.1,1.8-10.4,2.9-15.8,3.1c-0.8,0-1.1,0.3-1,1.1c0,6.9,0,13.8,0,20.7C202,64.9,202.3,65.2,203.2,65.1z"/>
	<path fill="#004E81" d="M206,121.3c11-1.4,20.8-5.4,29.5-12.4c-3.9-3.3-8-5.9-12.5-8c-0.8-0.4-1.1,0-1.4,0.6c-2.3,4.1-4.9,8-8,11.7
		C211.2,116.1,208.6,118.7,206,121.3z"/>
	<path fill="#004E81" d="M178.6,101.7c-0.3-0.6-0.5-1.2-1.5-0.8c-4.6,2-8.5,4.9-12.5,8c8.6,7,18.4,10.9,29.4,12.5
		c-0.9-1-1.5-1.7-2.3-2.4C186.5,113.9,182.1,108.2,178.6,101.7z"/>
	<path fill="#004E81" d="M191.7,21c-3.7,4-6.8,8.3-9.4,13.1c-0.3,0.5-0.8,1,0.3,1.4c4.6,1.5,9.2,2.6,14.1,2.9
		c1.1,0.1,1.5-0.2,1.5-1.4c-0.1-6.8,0-13.6,0-20.4c0-0.4,0.1-0.9-0.3-1.4C195.6,17,193.6,19,191.7,21z"/>
	<path fill="#004E81" d="M196.9,96.2c-4.8,0.1-9.4,1-14,2.4c-1.1,0.3-1,0.8-0.6,1.6c1.9,3.5,4.1,6.8,6.6,9.9c2.7,3.3,5.6,6.3,9,9
		c0.1-0.2,0.2-0.4,0.2-0.5c0-7.2,0-14.4,0-21.6C198.1,96,197.5,96.2,196.9,96.2z"/>
	<path fill="#004E81" d="M203.1,38.4c4.9-0.2,9.7-1.3,14.3-2.9c0.9-0.3,0.6-0.7,0.3-1.3c-1.9-3.7-4.2-7.1-6.8-10.3
		c-2.6-3.2-5.5-6.1-8.8-8.8c-0.1,0.3-0.1,0.4-0.1,0.5c0,7.2,0,14.5,0,21.7C202,38.3,202.3,38.4,203.1,38.4z"/>
	<path fill="#004E81" d="M202.1,107.1c0,4,0,8,0,12.4c6.6-5.7,11.8-12.1,15.7-19.4c0.4-0.7,0.5-1-0.5-1.3c-4.6-1.4-9.3-2.4-14.2-2.6
		c-0.9,0-1.1,0.2-1.1,1.1C202.1,100.6,202.1,103.8,202.1,107.1z"/>
</g>
</svg>
