<svg xmlns="http://www.w3.org/2000/svg" width="274" height="187" viewBox="0 0 274 187"><mask id="a" fill="#fff"><path fill-rule="evenodd" d="M0 1.3h59.2V99H0z"/></mask><mask id="b" fill="#fff"><path fill-rule="evenodd" d="M1.2.8h114.1v85H1.2z"/></mask><g fill="#143144" fill-rule="evenodd"><path d="M161.6 95.5c-1.3 4.7-2.7 10.8-6 14.5-.5.5-1.4 3-1.1 2.6 4.6-5 6.7-12.6 8.5-19 .4-1.3-1.3 1.4-1.4 1.9M153.8 20.6c1.8 3.1 3.5 6.3 5 9.5 1.7 3.6 5.8 10.3 4.4 14.4-.5 1.3 1.2-1.4 1.4-1.8 1.5-4.4-1.8-10.2-3.6-14a137 137 0 0 0-5.7-11c0 .1-2 2.2-1.5 3M94.8 173c-4 6.2-6.4 13-8.9 19.7-.7 2 1-.6 1.2-1.2 2.1-5.7 4-11.6 7.3-16.7.4-.6 1.5-3.4.4-1.7M110.7 196.4l-.1-6.7c-.1-2.1.1-6-1.5-7.7.1 0-1.3 1.7-1.2 1.8 1.6 1.7 1.4 5.7 1.5 7.8l.2 6.6c0-.6 1.1-1.2 1.1-1.8M185.6 185.1c0 4.2-.2 8.4-.5 12.6 0 .6.5-.2.6-.4.4-.4 1-1.4 1-2 .3-4.3.5-8.6.5-13 0-.3-.9.9-.9 1-.3.4-.7 1.2-.7 1.8M156.2 147.9c0 11.2 14.4 12.3 22.4 16 11.8 5.3 16 17.2 20.3 28.7 0 .1 2-.7 2-1-4.3-11.4-8.5-23.3-20.4-28.7-8-3.7-22.4-4.8-22.3-16 0 0-2 .4-2 1M147.6 141c-3.6 2.6-8.5 4-14.6 12.3l4.2-14.6c3.8 1 5.6-5.7 5.6-5.7l2.8 6.4z"/><path d="M161.8 115.3a98.7 98.7 0 0 0 14-58.9c-.7-16-4-36.4-16.2-48.2-5.5-5.4-13.5-6.5-20.9-7.6-7-1-14.4-1-21.1 1.4-13 4.7-19 17-22.2 29.5-2.4 9-4.3 18.9-4.2 28.3 0 4.6.3 9.7 2.6 13.7 2.2 3.8 7.4 9 7.5 13.5.1 3.8-1.7 6.5-.7 10.4a45 45 0 0 0 6.5 12.8c2 3 4.2 6 6 9.2 2.7 4.5 1 7.6-2.2 11.7-2.3 3-6.8 6.3-7.6 10.2-.5 2.5 1.1 4.7-.2 7.3-3 5.7-14.5 2.9-19 .4a17.6 17.6 0 0 1-7.6-9.6c-1.8-5-1.6-10.1-2.1-15.3-.8-7.8-2.8-16-6.8-22.8-6-10.4-19.6-15.2-30-20.4-3.4-1.7-6.6-4-8-7.7-3-8.6 3.3-17.3 11.8-18.6 7.7-1.1 15.3 3.4 22.9 1.1 7.5-2.2 7.3-10.7 3-16.2-.1-.3-2 .7-1.9 1 .9 2.4 2.2 6.5.7 8.8-2.7 4-10.5 1-14.1.1-6.2-1.4-12.6-2-18.5 1C20 57 14.1 72 23.6 84.8c5 6.8 12 9.9 19.3 13.6 7.9 4 11.6 9.9 13.7 18.5 2.2 9 .5 18 1.2 27 1 13 6.7 25.7 20.5 28.8.5 0 1.8-1.1 1.8-1.1-12.7-2.9-18.6-14-20-26-1-7.9.4-15.7-.5-23.6-.9-8.2-3.4-17.3-10.6-22.2-5.7-4-12.6-5.8-18-10.3-7-5.7-12.5-15.3-9.8-24.5A23 23 0 0 1 27.8 55c5.8-5.3 12.7-6.3 20.1-4.9 5.2 1 12 4 17 1.3 4.6-2.5 4-7.5 2.5-11.8l-2 1c3 4 5.7 13.2-1.6 14.6-4.3.8-9-.7-13.3-1.5a24 24 0 0 0-14.7 2.2C29 59.2 24.6 68 28 75.3c3.5 7.1 14.8 10 21.2 13.6 4.7 2.7 10 5.3 13.5 9.4 3.2 3.6 5.2 8.2 6.7 12.8 1.7 5.3 2.9 11 3.2 16.6.3 6.9.9 14 5.8 19.4a21 21 0 0 0 22 4.5 9.5 9.5 0 0 0 4.1-3.2c1.7-2.6.4-4.4.5-7 .4-7.6 14.4-12.5 11.1-21-2.8-7.3-9.2-13-12.3-20.3-2-4.3-2-7.2-1-11.7 1-4.4-1.7-7-3.8-10.6-3-4.8-5.3-8.8-5.8-14.6a108.3 108.3 0 0 1 7.7-43.6c3.7-8.5 9.6-15.6 19-17.7 9.3-2 19.3-.2 28.3 2.1C165.7 8.6 171 32.5 173 47.7c3 23.2-.2 48.6-13.3 68.5.1-.1 1.6-.4 2-1"/><path d="M103.7 132.5a54 54 0 0 1-30-2.5s-.3 2 .2 2.2a54 54 0 0 0 30.1 2.4c.3 0 0-2.2-.3-2.1M82 165.2c0 .7-.3.9-1 1-.6.1-1.3.1-1.9-.1-1-.4-1.9-1.3-1.9-2.4 0-1.3 1.8-1.2 2.7-1 1.2.4 2 1.3 2.1 2.5 0 .3.6-.4.7-.4.2-.2.8-.8.8-1-.2-2.3-2.7-3.3-4.6-2.5-1.4.5-3.2 2.3-3.2 4 0 2.1 2.7 3 4.5 2.4 1.5-.5 3.2-2.3 3.3-4 0-.2-.6.4-.7.4-.2.3-.8.8-.8 1.1M25.3 73.8c.2.3.2.7.2 1-.2.6-.5.7-1 .8-.7 0-1.3-.5-1.6-1.1-.1-.3-.2-.7-.1-1 0-.6.4-.8 1-.8.7 0 1.2.4 1.5 1 0 0 .9-.5.7-.8-1.2-2.6-4.7.2-3.8 2.4.5 1.2 2 1.4 2.9.5.8-.7 1.4-1.8 1-2.9 0 0-.9.6-.8.9M37.8 52a2.2 2.2 0 0 1-.2 1.8c-.1.3 0 .1.4-.3l-1 .4c-1 .1-2-.2-2.4-1.2-.2-.5-.2-1 0-1.5V51c.3-.4.2-.3-.3.2l1-.4c1-.2 2 .2 2.5 1.1 0 0 1.7-1.2 1.5-1.5-.9-1.8-3-1.2-4.2-.2-1.1 1-2.8 2.5-2 4 1.4 3.5 7.2-1 6.2-3.8 0 .2-1.7 1.1-1.5 1.5M40.5 84.1c-.3 1-1.3 1.3-2.2 1.2A3 3 0 0 1 37 85l-.7-.6c-.2-.3-.2-.8-.2 0s0 .4.3.1l.5-.4c.4-.2.9-.3 1.3-.3.5 0 1 .2 1.3.4l.7.6c.4.5 0 .7.2-.6v1.5c0 .1.2.8.3.4.2-1.3.1-3-1-4-1.3-.7-3.4-.7-3.8 1-.4 1.1-.2 3 .8 3.8 1.2 1 3.4 1 4-.7V85l-.2-.8M12.3 118c-.1.8-2 1-2.5.8-.8 0-2-.7-1.7-1.6.3-.9 1.7-1 2.5-.8.8.2 1.6.7 1.7 1.6 0 .3.4-.6.4-.8-.1-1.6-1.9-2.2-3.2-1.8-1.1.3-2 1.4-2 2.6 0 1.5 1.7 2.1 3 1.9 1.3-.3 2.1-1.4 2.2-2.6 0-.5-.4.4-.4.6M45.4 94.4l.3 1v.2c0 .5 0 .3.2-.3l-.6.5-.8.4c-1 .2-2-.2-2.5-1l-.3-.8c0-.2 0-1.1-.1-.4-.1.4-.1.4 0 .2a2.2 2.2 0 0 1 1-.8c1.1-.3 2.2.2 2.8 1l.4-1c0-.2.3-.9.2-1a2.3 2.3 0 0 0-4 .1c-.8 1.3-1.4 3.4-.6 4.8 1 1.5 3.2 1.3 4-.2.8-1.3 1.4-3.4.6-4.8l-.4 1c-.1.3-.4.9-.2 1.1M66.5 142.2c-1 .8-2.3.9-3.3.1a3.2 3.2 0 0 1-1-1.2v.3c-.3 0 .8-1.6.9-1.7.8-.8 2.1-.8 3.1-.2l.8.7.5.9c0-.7-.1-.8-.2-.3a2.8 2.8 0 0 1-.8 1.4c-.1.2 0 1 .1 1.1l.2 1c1.3-1.2 1-3.4.5-5-.6-2-2.9-3.3-4.5-1.7-1.4 1.2-1 3.6-.5 5.1.6 2 2.8 3.1 4.5 1.7.2-.1 0-1 0-1.1l-.3-1M25.2 113.4c-.3.2-.2.2.1 0h-.4l-.9-.3a3.3 3.3 0 0 1-1.7-3l.3-.9c0-.3.4-.5.5-.8.2-.2.2-.2-.2 0h.6l.7.3c.6.3 1 .8 1.3 1.3a3 3 0 0 1-.4 3.5c-.3.3.4.2.5.2a3 3 0 0 0 1.3-.7 3.3 3.3 0 0 0-.4-5c-1.5-1.1-3.8-.4-5 .8a3.3 3.3 0 0 0 .2 5c1.5 1.2 3.7.4 5-.7.4-.3.3-.4 0-.3a3 3 0 0 0-1.5.6M42.2 113.3c-1.2 1-3-.4-3.5-1.5-.5-1-.4-2.8.8-3.4 1.2-.6 2.6.4 3.1 1.6a3 3 0 0 1-.5 3.4c-.2.2.2 0 .3 0l.6-.3a3.3 3.3 0 0 0-.6-5c-1.3-.8-3-.4-4 .6-1.4 1.3-1.2 3.7.3 4.9 1.4 1 3 .5 4.2-.5.4-.3-.6.1-.7.2M68.7 154.7c.3-.3-.3-.2-.5-.2-.3 0-.6-.2-1-.4s-.7-.6-1-1.1c-.3-.5-.5-1.1-.4-1.8 0-.4.3-1.4.5-1.6l1.5.5c.5.3 1 .7 1.2 1.2a3 3 0 0 1-.4 3.5c-.4.3.4 0 .4 0a4 4 0 0 0 1.3-.7c1.4-1.5 1.2-4-.5-5.1-1.6-1-3.7 0-5 1.1a3.3 3.3 0 0 0 .4 5c1.6 1.2 3.6.2 5-1 .3-.2.2-.2-.2-.2-.4.1-1 .5-1.3.8M101.4 168.4c-.9.7-2 .8-3 .2-.4-.2-1-.7-1.1-1.2-.2-.6.2-1.2.6-1.6.8-.7 2-.8 3-.2.4.3.9.7 1 1.2.3.6 0 1.1-.5 1.6-.3.3-.1 1-.1 1.3 0 .2.2 1 .4.8 1.3-1.4 1.2-3.9.5-5.5-.8-1.7-3-2.7-4.6-1.3-1.3 1.3-1.2 4-.5 5.6.9 1.7 3 2.5 4.6 1.2.4-.3-.1-2.3-.3-2.1M93.8 158.3c-1 .8-2.3.9-3.3.1a3.3 3.3 0 0 1-1.2-3c0-.5 0-.4-.1.2l.6-.4c.3-.2.7-.3 1-.3.6 0 1.2.3 1.6.6a3.3 3.3 0 0 1 1.3 3c-.1.5 0 .5.1-.2a4.2 4.2 0 0 0-.9 2c1.2-1.3 2.2-3.3 1.7-5-.6-2-3-3-4.5-1.6-1.3 1-2.2 3.3-1.8 5 .6 2 3 3 4.6 1.5.3-.2.5-.7.7-1.1l.2-.8M99.7 141.8c-.5.5-1.4.2-2 0-.5-.4-1-.8-1.3-1.3-.6-1.1-.7-3 .6-3.7 1.2-.7 2.7.4 3.2 1.5.6 1.2.4 2.6-.5 3.6.1-.2.7-.3 1-.5 1.4-1.5 1-4.1-1-5-1.2-.7-2.7-.1-3.7.8-1.5 1.4-1 3.9.6 5 1.3.8 2.9.2 4-.8.1-.1-.2 0-.2 0l-.7.4M9.8 138.8c-1 .7-2.1.8-3 .2-.6-.4-1-.9-1.3-1.5 0-.2-.2-1-.3-.5 0-.3.4-.6.6-.8.8-.8 2-.8 3-.2a3 3 0 0 1 1.4 2.2c.2-.3.1-.3 0 0l-.4.6c-.3.3-.4.9-.4 1.3 0 0 0 1 .1.8a5.6 5.6 0 0 0 1-5.4c-.6-1.8-3-2.8-4.5-1.4-1.3 1.2-1.6 3.8-1 5.4.7 1.8 3 2.7 4.5 1.4.3-.3.3-1 .4-1.3 0-.1 0-1-.1-.8M51 127.7c.3 0 .2 0 0 0h-.5c-.3 0-.5-.2-.7-.3a3 3 0 0 1-1.3-1.4c-.4-.8-.5-2.5.3-3.1.2-.3 1.1 0 1.5.3.5.3.9.8 1.1 1.3a3 3 0 0 1-.5 3.4c-.3.3.4.2.5.2a3 3 0 0 0 1.4-.7 3.3 3.3 0 0 0-.4-5c-1.6-1.2-3.9-.5-5.2.7a3.3 3.3 0 0 0 .3 5c1.6 1.3 3.8.5 5.1-.6.4-.3.2-.4-.1-.4-.5 0-1.1.4-1.4.6M113 164.5c-1.1.8-2.7.4-3.5-.5a3.3 3.3 0 0 1-.9-2.8l.2-.5c.2-.4.2-.5 0-.1-.2.2-.2.3 0 .1a2.3 2.3 0 0 1 1.5 0c.6.1 1 .4 1.5.9a3.3 3.3 0 0 1 .8 2.7c-.1.4-.7 1.2 0 .5l-.9 1c.1.2.6-.3.7-.4 1.3-1.4 2.3-3.1 1.2-5-1.1-1.8-3.2-1.8-4.6-.5-1.3 1.3-2.5 3-1.6 4.9.9 1.9 3 2.2 4.6 1 .4-.4.8-.8 1-1.2.2-.3.3-.4 0-.1M71.8 121.8c-.1 1-.2 1-1.1 1.2-.7.1-1.4 0-2-.2-1.1-.4-2-1.4-2-2.6 0-1 .1-1 1-1.2.7-.1 1.3 0 2 .1a3 3 0 0 1 2 2.7l.8-.7c.2-.2.7-.7.7-1-.2-2.4-3-3.5-5-2.4-1.3.8-3 2.6-3 4.1 0 2.4 3 3.5 5 2.5 1.4-.7 2.9-2.5 3-4.1l-.8.7c-.2.2-.6.6-.6 1M215 92.7c0 .3-.5.5-.7.6-.2.2-.5.2-.8.2-.5 0-1.4-.4-1.3-1 0-.6 1-.8 1.5-.8.6 0 1.2.5 1.3 1.2 0 .7.3-.3.3-.5 0-1.1-1-2-2-1.7-1.1.2-1.6 1.1-1.6 2.1s.9 1.9 2 1.8c1-.1 1.6-1.1 1.6-2.1 0-.1 0-.5-.1-.4-.2 0-.2.5-.2.6M207.6 96.1c.2-.5.3-.6 0-.4l-.3.3-.7.3a2.9 2.9 0 0 1-2.7-.6l-.4-.5-.3-1-.2.5.3-.2.8-.5a3 3 0 0 1 1.5 0c1 .2 1.9 1 2 2.1 0 .2.3-.6.4-.6.1-.4.4-.9.4-1.3-.2-2-2.4-3-4-2-1.2.7-2 2.6-2 4 0 1.9 2.3 2.8 3.8 2 1.4-.7 2-2.6 2.2-4l-.4.7c-.2.4-.4.8-.4 1.2M196 105.6c.8.9.8 2.2.2 3.2 0 .2-.2.3-.3.5.4-.2.4-.2.1-.1l-.8.1a2 2 0 0 1-1.4-.6c-.8-.8-.8-2.2-.2-3.2.2-.4.5-.5 0-.3l1-.2c.5 0 1 .2 1.3.6.2.2 1.8-1.3 1.8-1.3-1.5-1.4-3.4 0-4.6 1-1.3 1.1-2.5 3.3-1 4.8 1.4 1.4 3.4-.1 4.6-1.1 1.4-1.2 2.4-3.2 1-4.7-.1-.2-1.8 1.2-1.8 1.3M184.5 116c.6.8 1 2.3.1 2.9-.9.5-2 .6-2.8-.2-.6-.6-1-2.1-.2-2.7.9-.7 2-.7 2.9 0 .2.3 1.5-1.5 1.2-1.8-1.6-1.3-3.5 0-4.5 1.3s-2 3.6-.6 5c2.8 2.8 7.4-3.7 5-6.3 0-.1-1.5 1.5-1.1 1.9M10.6 164.8c-1.1.7-2.4.4-3.3-.5-1-1-2-3.3-.7-4.4 2.5-1.9 6.3 3 4 5-.2 0-.5 1-.4.8 1.3-1 1.9-2.9 1.3-4.5-.5-1.7-2.7-3.5-4.5-2.2-1.2.9-1.8 2.7-1.4 4.2.4 2 2.6 3.8 4.6 2.5.2-.1.4-.9.4-1M35.2 173.1c0-1.3.3-.6-.2-.5l-.7.4a3 3 0 0 1-2.5-.5c-.3-.1-.5-.4-.6-.6 0-.2 0-.7-.2-.1-.1.5 0 .1.3 0 .2-.2.5-.3.8-.3a3 3 0 0 1 1.4 0c.9.2 1.6.8 1.7 1.7 0 .2.4-.6.4-.6.2-.4.4-1 .3-1.3 0-1.8-2.2-2.3-3.6-1.8-1.3.5-2 2.3-2 3.7 0 1.7 2.2 2.3 3.5 1.8 1.5-.6 2-2.2 2.2-3.6 0-.5-.4.2-.4.3-.2.4-.4 1-.4 1.4M49.8 98c6.6 2.2 11.2 8.2 11.5 15 0 .5.4-.5.4-.7-.3-7-4.9-13.2-11.6-15.3-.2 0-.5 1-.3 1M100.6 145.3a15 15 0 0 1-17.4-5.3s-1.3 1.5-1 2c4 5.5 11.1 7.6 17.6 5.3.5-.2 1-2 .8-2"/><path d="M57.7 17.2A33 33 0 0 0 25.8 1.5a26.1 26.1 0 0 0-22.4 19c-6.3 19.6-6 52.7 20.4 56 7.3 1 18.2.7 17 11.1-.6 5.5-5.9 8.1-11 9.3-.5.1-.6 2.2-.3 2.2 15-2.4 22.7-23.8 7.9-32-4.5-2.4-9.1-1-14-1.4-6.6-.5-10.2-5.5-12-11.4-4.4-13.7 3-38.2 21-35.8 13.6 1.8 18 17.4 26.1 26.4.3.2 1-1.6.5-2-4.8-5.4-8.4-11.5-12.4-17.5a19 19 0 0 0-9-7.8C28 13.8 19 18.2 14.3 27c-5 9.2-6.9 21-3 31 1.7 4 4.2 8 8.5 9.4 5 1.7 10.6-.7 15.6 1.2a13.8 13.8 0 0 1 4.7 23 19.2 19.2 0 0 1-10.3 5.4l-.3 2.2c5.7-1.3 11.8-4.8 12.7-11 .6-4.1-1-8.7-4.5-11-4.6-3-11-2-16.1-3C3.5 70.4-2.1 47.3 1.2 31.6 3.5 20.8 7 9.7 18.5 5.4c14.7-5.5 30.4 1 38.7 13.9 0 .1.8-1.6.5-2.1" mask="url(#a)" transform="translate(0 99.9)"/><path d="M189 129.7c3-6.2 6-12.5 9.5-18.4 3.6-6 13.5-20.3 22.5-14 4.3 3 5.4 9.8 5.4 14.7 0-.4 1.4-1 1.4-1.6.6-6.4-1.8-13.4-6.2-18-5.8-6.3-13.6-3.7-20 .3-13 8.5-24.6 19.8-35.9 30.5-.2.2-1.4 1.9-.8 1.3 11-10.6 22.5-21.8 35.4-30.1 6-3.8 13.6-6.5 19.3-1 4.8 4.6 7.4 12 6.8 18.6l1.4-1.6c0-10.2-6.3-21-17.4-13.6-11.3 7.6-17.1 22.8-22.8 34.5.1-.3 1-1 1.4-1.6M78.5 173c11 4 27 0 37.1-4.6 12.9-5.8 22-17 21.7-31.5 0 0-1.4 1-1.4 1.6.3 17-12.4 27-27.7 31.3-8.4 2.4-19.8 4.6-28.3 1.6-.5-.2-1.5 1.7-1.4 1.7"/><path d="M45.5 35.4c9 6.1 1 17.8-.5 25.6-1.9 10.5 5.2 17.5 14 21.7 19.4 9.4 42.3-4 52-21.5 6.5-11.9 5.1-24.7-.5-36.6-9.9-21-32.9-29-54.1-20.5-5 2-8.7 5-13.4 7.5-13.3 6.9-28.2 1.3-39.9-6.2-.5-.3-1.9 1-2 1 13.5 8.6 29.2 13 43.7 4.7 4.7-2.8 8.6-5.6 14-7.3a40.2 40.2 0 0 1 37.4 6 48.2 48.2 0 0 1 17.3 33.8c1.4 24.2-26.3 48-49.7 39.3-4.6-1.7-9-4.5-12.5-7.9-5-4.9-5.5-11.2-3.7-17.7 2-7.1 8.2-17.3-.1-23-.5-.2-2 1.1-2 1.1" mask="url(#b)" transform="translate(158.7 115.7)"/><path d="M208.2 164.2c2.6 2.1-.3 8.2-.7 10.6-.5 2.5-.4 5.1.5 7.6 3.6 9.3 14.8 11.2 23.6 11 .5 0 1-1.8 1-1.8-8.6 0-20-1.8-23.5-11-1.6-4.4-.1-7.7.7-12 .3-1.5 1-5-.5-6.2 0-.1-1.3 1.6-1 1.8M224.6 128.4c-.6 1-1.6 1.9-2.9 1.8-1.8 0-3-1.7-2.2-3.4a3.2 3.2 0 0 1 2.9-1.8c1.8 0 3 1.7 2.2 3.4l.3 1c.5-1.4.4-3.3-.6-4.5-1.4-1.7-4.1-1-5 .9-.7 1.3-.5 3.3.5 4.5 1.5 1.8 4 1 5-.9.2-.2-.2-1-.2-1M244.3 121.6c-.5 1-1.6 1.4-2.7 1.2a3 3 0 0 1-1.5-.9l-.5-.6c-.1-.4-.2-.4-.1 0 0 .5 0 .5.1 0 .7-.9 1.5-1.4 2.7-1.2a2.9 2.9 0 0 1 2.2 1.8c0-.8 0-.9-.2-.3v1.3c0 .1.1 1 .2.8.6-1.4.5-3.7-.6-4.8-1.2-1.3-3.6-1.4-4.5.3-.6 1.4-.4 3.8.6 4.9 1.3 1.3 3.6 1.3 4.5-.4.2-.4 0-1 0-1.4 0 0 0-.9-.2-.7M259.7 130.6c-.7 1.3-2.3 1.4-3.5.8-.5-.2-1-.6-1.3-1l-.3-.7c-.1-.4 0-1.3-.3-.5s.1.1.5 0c.3-.2.6-.3 1-.3.5-.1 1 0 1.6.3.5.2 1 .6 1.2 1l.4.7c0 .3 0 1.3.2.6l-.3 1c.2 0 .5-.8.5-1 .7-1.5.9-3-.8-4.1-1.6-1-3.4-.5-4.2 1.1-.7 1.4-1.2 3 0 4.3 1.4 1.3 3.6 1.3 4.6-.4.2-.4.5-.9.6-1.4 0 0 .3-.7 0-.4M259.2 142.5c-1.1 0-2.1-.6-2.6-1.6-.4-1-.4-3 1-3.2 1 0 2 .5 2.5 1.5s.5 3.1-.9 3.3c-.4 0-.8.4-1.2.6 0 .1-.7.7-.4.7a5.8 5.8 0 0 0 4.3-3.2c.9-2-.5-4.3-2.7-4.2a5.8 5.8 0 0 0-4.3 3c-1 2 .3 4.4 2.7 4.4.4 0 .8-.4 1.1-.7.1 0 .8-.6.5-.6M268.8 150.1c-.6 1.1-2.3.8-3 0-.7-1-.6-2.6 0-3.6s2.1-1 2.8-.1c1 1 .7 2.6.2 3.7l.6-.4 1-1c.6-1.7.5-5-2-4.5-1.7.3-3.4 2.3-4.1 3.7-.8 1.6-.7 4.8 1.8 4.5 1.8-.2 3.4-2.3 4.2-3.7l-.6.4c-.3.3-.7.6-.9 1M266.2 175.6c-1.2 2.3-4.4-.5-3.4-2.5.5-1.2 2-1 2.8-.2.8.7 1 1.8.6 2.7 0 0 1-.1 1-.4.7-1.6-.4-3.3-2.2-3.4-1.1-.1-2.7.6-3.2 1.7-.8 1.6.5 3.3 2.2 3.4 1.2.1 2.6-.6 3.2-1.7 0 .1-.8.2-1 .4M256 185.1c-.6 1-1.5 1.6-2.6 1.6-.8 0-2.4-.8-2-1.8.5-1 1.5-1.6 2.5-1.6s2.4.9 2 2c-.2.3-.2 1 0 1.4 0 .2.1.8.3.4.6-1.5.6-4-.6-5.2-1.4-1.4-3.6-.6-4.4 1-.7 1.4-.7 3.8.4 5 1.3 1.7 3.6 1 4.5-.7.2-.4.2-1 .2-1.3 0-.1-.2-1-.4-.8M265.5 165.5c.2-.2.2-.2 0 0l-.5.2-.8.2c-.5 0-1-.1-1.4-.4-.8-.5-1.6-2-1.1-2.8.4-.8 2.1-.6 2.8 0 1 .6 1.3 2 .9 3-.2.4 0 .4.2.2.4-.3.8-.9 1-1.3.6-1.6.2-4-1.9-4.2-1.8-.2-3.2 1.5-4 3-.7 1.5-.4 3.7 1.6 4.2 1.9.5 3.3-1.3 4.1-2.8.2-.3.3-.5 0-.5s-.8 1-1 1.2M248.7 130.3c-.6 1-1.8 1.3-3 1-1-.2-2.4-1.3-2-2.5.3-1.1 1.8-1.3 2.8-1 1 .2 2.6 1.4 2.1 2.6 0 .2 0 1.2.1.8.6-1.4.4-2.9-.7-3.9-1.3-1-3.6-1.1-4.4.6-.6 1.2-.4 2.8.6 3.7 1.3 1.3 3.5 1.3 4.5-.4 0-.2.2-.5.1-.7 0 0 0-.4-.1-.2M238.9 131.4c-.7 1.2-2 1.5-3.3 1.2-1-.3-2.6-1.5-2.2-2.7.3-1.2 2.2-1.5 3.2-1.2.9.3 2.8 1.6 2.3 2.7-.2.3-.4.9-.2 1.2 0 .2.1.4.3 0 .7-1.7.7-3.7-1-5-1.5-1.1-3.8-.7-4.7 1.1-.8 1.6-.7 3.8.8 5 1.7 1.2 3.9.7 4.9-1 .1-.4.2-2-.1-1.3M211.6 130.2c.3-.3.3-.3 0-.2l-.3.2h-.7a2 2 0 0 1-1.8-1.4v-.7c0-.2.2-1 0-.6-.2.3.1 0 .3-.1l.8-.1c.4 0 .8.2 1.1.5.8.6.9 1.7.5 2.6-.2.4.4 0 .5-.2l.9-1.1c.6-1.5 0-3.4-1.8-3.5-1.5 0-2.9 1.5-3.5 2.8-.6 1.4-.2 3.3 1.5 3.5 1.7.2 3-1.4 3.7-2.7.2-.3.1-.4-.2-.2-.4.3-.8.8-1 1.2M209.6 144.8c-.7 1.2-2.8.7-3.6 0-1-.7-1.5-2.2-.9-3.3.7-1.1 2.7-.7 3.5 0 1.1.7 1.5 2 1 3.3 0-.2.7-.4.8-.7.8-2-.8-4-2.9-4-1.3 0-2.6 1-3.2 2.1-.9 2 .9 4 2.9 4 1.4 0 2.5-1 3.2-2.1l-.8.7M199.5 139.1c-.6 1-1.9 1.3-3 1a3.3 3.3 0 0 1-2-1.5 41.6 41.6 0 0 1-.1-.5c-.2.3.4-.3.5-.3l.7-.4c.5-.1 1.1 0 1.6 0a3.3 3.3 0 0 1 2 1.5l.1.4c.1.4.1.4.1 0-.2.4-.3 1-.2 1.5.1.3.2.5.4 0 .7-1.5.6-3.6-.7-4.8-1.4-1.2-3.8-1.2-4.7.6-.8 1.5-.7 3.7.6 4.8 1.4 1.3 3.7 1.4 4.7-.4.3-.4.3-1 .3-1.5 0-.1 0-.8-.3-.4M193.5 150.2c-.3.2-.3.3-.1.3h-.7a2 2 0 0 1-1.1-.8c-.5-.7-.6-1.6-.2-2.3l.2-.3c-.3 0-.3 0 0 0h.6c.4 0 .7.3 1 .6.6.7.6 1.7.3 2.5-.2.3.7 0 .8 0 .4-.3.9-.5 1-1 .7-1.4 0-3.3-1.8-3.4-1.5 0-3.4 1.1-4 2.5-.7 1.5.2 3.3 1.9 3.4 1.5 0 3.2-1.1 4-2.4.1-.3-.8 0-.9 0-.4.2-.8.5-1 .9M183.3 150.6c-.3.5-1.2.6-1.7.4a1.7 1.7 0 0 1-1-1c0-.1 0-.6-.2-.4 0 .1 0 .1 0 0 .2 0 .2-.1.3-.2l.5-.1h1l.7.7c.1.2.4.7.3.8 0 .2-.5 1-.2 1.2.3.1.7-.8.8-.9.5-1.2.8-3-.7-3.7-1.3-.7-2.6.6-3.2 1.7-.5 1.2-.9 3 .5 3.8 1.3.8 2.6-.4 3.3-1.5 0-.3.5-1 .3-1.4-.2-.2-.6.4-.7.6"/><path d="M142.3 137c2.4 5.6 11.5 10 16.7 12.7a67.6 67.6 0 0 0 23.3 7.8c7.3 1 15 .1 20.9-4.8 8.7-7.3 16.7-16.7 28.9-17.8 21-1.8 35.1 25.2 24.3 42.2a34.4 34.4 0 0 1-18.2 13.3c-8.2 2.5-20.2 1-24.5-7.5-2.4-5-1.5-10 0-14.9 2.4-7.8.8-15.2-5.7-20.4-.3-.2-1.5 1.6-1.1 1.9 7.6 6 7.3 13.5 5 22a18.2 18.2 0 0 0 1 14c4.8 8 16.2 9.3 24.4 6.8 6.7-2 12.8-6.5 17.3-11.8 7.8-9 9.2-22.8 3-33-6.4-10.6-18.3-17.4-30.5-13.2a45 45 0 0 0-12.6 7.2c-4.5 3.4-8.2 8.2-12.9 11.2-10 6.4-24 2.7-34.2-1.4-4.3-1.8-8.4-4-12.3-6.4-3.6-2.3-9.8-5.5-11.6-9.7 0-.3-1.4 1.2-1.2 1.7M124.3 80.7c-1.2-5.1 4.6-6.8 7.4-10 1.5-1.7 3-3.9 3.5-6.1.3-1.3-1.3 1.4-1.5 1.9-.6 2.4-3.8 4-5.7 5.4a12.2 12.2 0 0 0-3.8 4.3c-1.2 2-2.1 4.7-1.5 7.2 0 0 1.8-1.9 1.6-2.7"/><path d="M124.2 77.1s4.2 4.9 9 2.5c3-1.5 4-2.4 4.8-4.7.8-2 .1-7.5-5-6.4l-2 2.4-3.2 2.3-2.2 1.8z"/><path d="M129.8 60.5c2.4-1.1 5.3-1.9 8-1.7 7 .3 7 8.2 7.7 13.8 1.1 10.4-16.8 21.5-26.4 18.2-.2 0-.4 2 .1 2.2 9.6 3.3 28.3-8 27.2-19-.4-3.5-.9-7.3-1.6-10.7-.5-2.2-1.3-4.3-3.2-5.6-3.4-2.2-8.5-1-11.9.6-.5.2 0 2.3.1 2.2M205.8 150.4l2.7 4.3.6 7.7v1.6l.4 3.7-1.2 5.2-.5 5 2.4 6.6 4.5 4.2-.9-3.7-2-5.8v-6l2.2-8V159l-2-5.7-4.3-4.7zM152.6 34.4A38.6 38.6 0 0 0 152 49c.6 4.2 2.3 7.8 3.7 11.7a106 106 0 0 1 5.6 25.2c-.7-7.3-2-14.5-3.9-21.5-1.5-5.4-4.1-10.4-5-16-.5-4-.5-7.8.5-11.8.2-.6-.3-1.7-.2-2M158.6 155.6c.2 2-11 4.8-13 6.7-1.7 1.7-2.2 4.4-2.6 6.8-1.7 9.5-1.8 19.5-2 29.1 0-.5 1.2-1.1 1.3-1.8.1-10 0-20.5 2-30.3.7-2.8 1.3-2.9 4-4 2.6-1.3 5.5-2 8-3.6 1.4-1 3.7-2.8 3.5-4.8 0 .5-1.2 1.2-1.2 1.9"/><path d="M160.6 158.6c.4 2.5-7.4 4.5-9.2 5.3-1.8.8-4 1.9-5.2 3.5.3-.3 1.3-.7 1.7-1.3-.5.7.3 0 .7-.3l1.2-.5 3-1.3c1.7-.7 3.6-1.4 5.3-2.4 1.3-.7 4.5-2.5 4.2-4.4 0 .3-1.8 1-1.7 1.4M127 161c1 1.6 3.2 2.7 4.8 3.7l6.5 4s.2-.8 0-1c-1.8-1.3-3.8-2.3-5.6-3.5-1.9-1-4.5-2.4-5.7-4.3 0 0-.2.8 0 1"/><path d="M143 178l-1.3-6.6c-.5-2.4-.5-6-1.7-8.2-.6-1.3-2-1.7-3.4-2.5L130 157c-.4-.3-1.4 1.7-1 1.9 2.9 1.6 8.9 3.5 10.1 6.4 1.8 4.3 2 9.9 2.9 14.4 0 .2 1.2-1.2 1-1.8M92.3 57.4c-10.5 9.2.3 28.4 8.8 34.8.3.3 1.3-1.6.8-2-7.2-5.4-18.4-23.4-10-30.9.5-.3.9-2.3.4-1.9M65.5 40.3s2.9 6.9-4 8.9c-7.6 2-17.2-1-17.2-1l15 3.8s6-.8 7.5-2.5c1-1.2 1.4-6.5 1.4-6.5zM29.6 196.8s7.2-2.9 8.5-7.5c1.2-4.6-3-10-5.9-11.4-1.8-1-8-1.5-8-1.5l12.9 1.4 4.5 6.3-1 7.6-8.5 5.9z"/></g></svg>
